<svg width="92" height="82" viewBox="0 0 92 82" fill="none" xmlns="http://www.w3.org/2000/svg">
<g clip-path="url(#clip0_2005_355)">
<path d="M1.46397 81.1641C1.46389 81.1641 1.46384 81.1641 1.46385 81.1641C1.46389 81.1639 1.47578 81.166 1.50777 81.1689C1.54492 81.1722 1.59688 81.1758 1.66485 81.1793C1.80044 81.1865 1.99217 81.1934 2.24127 81.2002C2.73905 81.2136 3.45982 81.226 4.40591 81.2374C6.29776 81.2601 9.0866 81.2787 12.7858 81.2933C20.1839 81.3225 31.2208 81.3359 46 81.3359C60.7792 81.3359 71.8161 81.3225 79.2142 81.2933C82.9134 81.2787 85.7022 81.2601 87.5941 81.2374C88.5402 81.226 89.2609 81.2136 89.7587 81.2002C90.0078 81.1934 90.1996 81.1865 90.3351 81.1793C90.4031 81.1758 90.4551 81.1722 90.4922 81.1689C90.5211 81.1662 90.5336 81.1643 90.5358 81.1641C90.9468 81.0417 91.2442 80.8368 91.4409 80.5672C91.6393 80.2951 91.75 79.9365 91.75 79.4836C91.75 79.3537 91.7143 79.1575 91.501 78.6784C91.2888 78.2019 90.9137 77.472 90.2624 76.284C88.9612 73.9104 86.5729 69.7354 82.2238 62.1604C79.5917 57.5789 77.1349 53.348 75.2981 50.2224C74.3797 48.6594 73.6166 47.3734 73.0642 46.4582C72.7879 46.0005 72.565 45.6364 72.4019 45.3773C72.3203 45.2476 72.2544 45.1454 72.2049 45.0714C72.18 45.0344 72.1602 45.0057 72.145 44.9848C72.1346 44.9705 72.1284 44.9627 72.1257 44.9592C71.9119 44.7547 71.7524 44.6344 71.6013 44.5624C71.454 44.4923 71.2995 44.4609 71.0844 44.4609C70.7513 44.4609 70.5375 44.4741 70.3361 44.5576C70.1379 44.6397 69.9246 44.8023 69.6342 45.1593C69.0443 45.8846 68.217 47.3068 66.6117 50.1208L66.611 50.1219C64.9447 53.0066 63.4819 55.5353 63.3682 55.7059C63.3155 55.7848 63.2211 55.8485 63.099 55.8411C63.0056 55.8354 62.9327 55.7888 62.8897 55.7567C62.7984 55.6885 62.6957 55.5713 62.5778 55.4173C62.3352 55.1003 61.965 54.541 61.4004 53.6353C60.2688 51.8197 58.3355 48.578 55.0388 43.0086L55.0387 43.0084C52.2625 38.3096 50.3094 35.041 49.0057 32.9205C48.3536 31.8599 47.8654 31.0888 47.5186 30.5704C47.345 30.3109 47.2088 30.1178 47.1065 29.9843C47.0552 29.9175 47.0147 29.8685 46.9838 29.8349C46.9615 29.8105 46.9495 29.8 46.9464 29.7972C46.6852 29.6539 46.3456 29.5734 45.9971 29.5693C45.6488 29.5653 45.3122 29.6378 45.0544 29.7788C45.0503 29.7827 45.0408 29.7921 45.025 29.8099C44.9946 29.8443 44.9532 29.8959 44.9 29.9673C44.7939 30.1096 44.6502 30.3173 44.4672 30.594C44.1018 31.1467 43.5869 31.9632 42.9157 33.0552C41.5737 35.2387 39.6116 38.5165 36.9793 42.9725L36.9792 42.9727C33.6825 48.542 31.7447 51.7927 30.6086 53.6172C30.0418 54.5274 29.6695 55.0911 29.4253 55.4113C29.3065 55.567 29.2035 55.6852 29.1123 55.7542C29.0697 55.7865 28.9973 55.8336 28.9044 55.8404C28.8523 55.8443 28.7958 55.8352 28.7424 55.8068C28.6905 55.7792 28.6551 55.7407 28.6318 55.7059C28.5177 55.5347 27.0554 53.0068 25.4066 50.1212C23.7924 47.3168 22.9604 45.8937 22.372 45.1654C22.0819 44.8063 21.8707 44.642 21.6767 44.559C21.4808 44.4752 21.2744 44.4609 20.9516 44.4609C20.5724 44.4609 20.2723 44.5761 19.9375 44.8778C19.9374 44.8785 19.9167 44.9029 19.867 44.9748C19.8192 45.044 19.7556 45.1406 19.6764 45.2646C19.5181 45.5122 19.3016 45.8623 19.0323 46.3058C18.4938 47.1923 17.7471 48.4473 16.8388 49.9911C15.0223 53.0785 12.561 57.3184 9.83004 62.0707C5.47207 69.6724 3.07028 73.8744 1.75774 76.2662C1.10085 77.4632 0.720499 78.2001 0.504565 78.6804C0.286853 79.1646 0.25 79.3597 0.25 79.4836C0.25 79.9368 0.360916 80.3002 0.559614 80.5746C0.756763 80.8468 1.05427 81.0509 1.46397 81.1641ZM1.46397 81.1641C1.46437 81.1643 1.46569 81.1646 1.46774 81.1652M1.46397 81.1641L1.46774 81.1652M1.46774 81.1652L1.46774 81.1652L1.46896 81.1655C1.46853 81.1654 1.46812 81.1653 1.46774 81.1652ZM56.9948 53.5325L57.0984 53.7027L56.9557 53.8416L56.2728 54.5065L55.59 55.1713L55.437 55.3203L55.266 55.1924L51.78 52.587L51.7797 52.5867C51.6173 52.4649 51.4616 52.3479 51.3122 52.2357C50.4661 51.5999 49.8215 51.1155 49.2942 50.7618C48.6716 50.3442 48.2427 50.1305 47.8699 50.0607C47.5114 49.9935 47.1783 50.0549 46.7343 50.2568C46.3473 50.4327 45.8991 50.7039 45.296 51.0688C45.1895 51.1332 45.0783 51.2006 44.9617 51.2708C44.9615 51.2709 44.9612 51.271 44.961 51.2712L42.8419 52.5642L42.6679 52.6704L42.5289 52.5213L41.038 50.9227C41.0379 50.9225 41.0378 50.9224 41.0377 50.9223C40.2155 50.0465 39.295 49.0363 38.9973 48.6649L38.461 48.0393L38.3446 47.9034L38.4355 47.7494L42.0652 41.6041C43.0627 39.9146 43.9796 38.3775 44.6541 37.2624C44.9912 36.705 45.2682 36.2523 45.4646 35.9385C45.5627 35.7818 45.6417 35.6582 45.6984 35.5729C45.7264 35.5308 45.751 35.4951 45.7707 35.4686C45.7738 35.4644 45.7772 35.4599 45.7809 35.4552C45.788 35.4459 45.796 35.4361 45.8044 35.4268C45.8101 35.4204 45.8216 35.408 45.8372 35.3952C45.8448 35.3889 45.8591 35.3777 45.8788 35.3669C45.8943 35.3585 45.9385 35.3359 46 35.3359C46.0773 35.3359 46.1299 35.3718 46.1389 35.3777C46.157 35.3895 46.1699 35.4013 46.176 35.4071C46.189 35.4194 46.1991 35.4314 46.2044 35.4378C46.2162 35.4522 46.2284 35.4688 46.2393 35.4844C46.2622 35.5168 46.2924 35.5621 46.3285 35.6179C46.4013 35.7302 46.5043 35.8942 46.6335 36.1033C46.8923 36.5221 47.2596 37.1267 47.7079 37.8716C48.6045 39.3615 49.8268 41.4151 51.1568 43.6707C53.829 48.1723 56.2158 52.2279 56.4932 52.7085L56.9948 53.5325ZM20.9618 50.6598C20.9618 50.66 20.9622 50.6615 20.9631 50.6639C20.9622 50.6607 20.9617 50.6595 20.9618 50.6598ZM5.31825 77.3275L5.76671 76.5561C5.87558 76.3636 6.61992 75.0691 7.75678 73.092C9.13079 70.7025 11.0781 67.3158 13.1699 63.6724C13.884 62.4269 14.5322 61.2957 15.1208 60.2686C18.0636 55.1335 19.5153 52.6003 20.2413 51.4014C20.4591 51.0419 20.6148 50.797 20.7274 50.6366C20.7835 50.5567 20.8326 50.4924 20.8763 50.4437C20.9132 50.4025 20.9706 50.3436 21.0464 50.3124C21.0905 50.2942 21.1555 50.2794 21.2293 50.2984C21.304 50.3177 21.3537 50.3628 21.3829 50.4005C21.429 50.4602 21.4455 50.5305 21.4513 50.555L21.4518 50.5571C21.4555 50.573 21.459 50.5896 21.4617 50.6026L21.4623 50.6057C21.4654 50.6206 21.4678 50.6322 21.4704 50.6432C21.475 50.6622 21.4781 50.6702 21.4787 50.6718C21.5338 50.7722 21.8232 51.2779 22.2551 52.0328C22.7634 52.9211 23.4692 54.1546 24.2232 55.4788C24.2233 55.479 24.2234 55.4792 24.2235 55.4794L26.7924 59.9345L26.8653 60.0609L26.791 60.1866L21.652 68.8834L16.5129 77.5803L16.4403 77.7031H16.2977H10.925H5.53437H5.09984L5.31825 77.3275ZM78.83 63.6542L78.8301 63.6545L86.268 77.1297L86.4889 77.0127L86.489 77.0128C86.5084 77.0496 86.5543 77.1363 86.5512 77.239C86.5469 77.3795 86.4607 77.4745 86.3677 77.5269C86.2888 77.5714 86.1898 77.5958 86.0873 77.6129C85.9793 77.6309 85.8413 77.6446 85.6682 77.6555C84.9799 77.6988 83.6305 77.7031 81.075 77.7031H75.7023H75.5598L75.4872 77.5805L70.4021 68.9914L70.402 68.9914C69.0092 66.6371 67.7376 64.4712 66.814 62.8802C66.3522 62.0848 65.9771 61.4324 65.7172 60.9717C65.5874 60.7416 65.4856 60.558 65.4159 60.428C65.3813 60.3633 65.3534 60.3096 65.3337 60.2692C65.3241 60.2494 65.3149 60.2296 65.3075 60.2117C65.3039 60.203 65.2993 60.1912 65.2952 60.1781L65.295 60.1774C65.2928 60.1705 65.2834 60.1412 65.2822 60.1038C65.2808 60.0638 65.2882 60.0301 65.292 60.0144C65.297 59.9936 65.3035 59.9733 65.3099 59.955C65.3228 59.9184 65.3404 59.8758 65.3608 59.83C65.4019 59.7375 65.4611 59.6162 65.5345 59.4724C65.6818 59.1838 65.8922 58.7928 66.1442 58.336C66.6485 57.4219 67.3233 56.2377 68.0022 55.0688C68.681 53.8999 69.3648 52.7448 69.8872 51.8892C70.1482 51.4618 70.3701 51.1071 70.5314 50.8622C70.6115 50.7406 70.6795 50.6419 70.731 50.5741C70.7556 50.5417 70.7827 50.5081 70.8092 50.4817C70.8203 50.4707 70.8452 50.4465 70.8798 50.427C70.8964 50.4176 70.9339 50.3984 70.9853 50.3936C71.0463 50.3879 71.1261 50.4038 71.1893 50.467C71.208 50.4857 71.222 50.5063 71.2236 50.5087L71.2237 50.5089C71.2289 50.5163 71.2342 50.5244 71.2392 50.5322C71.2494 50.5481 71.2625 50.5691 71.2778 50.5941C71.2936 50.6199 71.3125 50.6513 71.3346 50.6881C71.3556 50.7232 71.3794 50.7632 71.406 50.8079C71.5147 50.9912 71.6704 51.2566 71.8677 51.5948C72.2624 52.2713 72.8247 53.2408 73.5132 54.4313C74.8902 56.8124 76.7725 60.0784 78.83 63.6542ZM36.5673 51.549L38.9928 54.0822C38.9928 54.0823 38.9929 54.0824 38.993 54.0825C39.6551 54.7715 40.3121 55.4194 40.836 55.9076C41.0982 56.152 41.3252 56.3546 41.5019 56.5018C41.5904 56.5755 41.6641 56.6335 41.7219 56.6753C41.7508 56.6962 41.774 56.7118 41.7919 56.7227C41.8035 56.7299 41.8107 56.7338 41.8142 56.7355C41.9879 56.7939 42.1397 56.8224 42.3011 56.819C42.4669 56.8156 42.6567 56.7781 42.9038 56.687C43.4069 56.5015 44.1047 56.111 45.2588 55.4077C45.8638 55.0375 46.4224 54.7194 46.8458 54.5043C47.0565 54.3972 47.2399 54.3125 47.3815 54.2598C47.4511 54.2339 47.5203 54.2121 47.5824 54.2011C47.6132 54.1957 47.6521 54.1911 47.6937 54.1939C47.7287 54.1964 47.7931 54.2058 47.8541 54.2508C47.9226 54.2989 48.2099 54.5172 48.6378 54.8424C48.7524 54.9295 48.8771 55.0243 49.0105 55.1255C49.6729 55.6285 50.5618 56.3019 51.5224 57.0201L51.523 57.0206C53.1633 58.2553 54.0319 58.9019 54.5853 59.2422C54.8593 59.4108 55.0425 59.4955 55.1936 59.5403C55.341 59.5841 55.4707 59.5938 55.6492 59.5938C56.014 59.5938 56.1831 59.5712 56.3981 59.4443C56.6407 59.3011 56.9403 59.0255 57.5237 58.4603L57.5257 58.4584C57.8691 58.133 58.1924 57.8415 58.4385 57.6368C58.5605 57.5353 58.6688 57.4508 58.7533 57.3939C58.7939 57.3666 58.8392 57.3386 58.8831 57.3195C58.9038 57.3106 58.9391 57.2968 58.9817 57.2918C59.0172 57.2876 59.1136 57.2835 59.1956 57.3588C59.2062 57.3683 59.2129 57.3759 59.2148 57.3781L59.2152 57.3785C59.2216 57.3856 59.2266 57.3919 59.2295 57.3957C59.2357 57.4037 59.2413 57.4117 59.2457 57.418C59.2548 57.4312 59.2658 57.448 59.2779 57.4669C59.3024 57.5051 59.3363 57.5595 59.3787 57.6283C59.4635 57.7663 59.5849 57.9668 59.7386 58.2224C60.046 58.734 60.4843 59.4689 61.0211 60.3719C61.9155 61.8761 63.084 63.8479 64.3788 66.0325C64.6385 66.4708 64.9034 66.9176 65.1721 67.371L65.1723 67.3714L70.9942 77.2362L71.2156 77.6114L70.78 77.6133L58.3995 77.6672L58.3991 77.6672C51.5705 77.6852 40.4295 77.6852 33.6009 77.6672L33.6005 77.6672L21.22 77.6133L20.7841 77.6114L21.0059 77.2361L28.5887 64.4064L28.5888 64.4063L36.1716 51.5945L36.3394 51.311L36.5673 51.549Z" fill="black" stroke="white" stroke-width="0.5"/>
<path d="M45.2512 0.275095L45.2532 0.274797C46.5005 0.0840263 47.5792 0.330847 48.669 1.09664L48.6733 1.09965L48.6733 1.09959C49.2628 1.49259 49.6832 2.11026 50.8861 4.37733C50.8863 4.37761 50.8864 4.37788 50.8866 4.37816L51.6979 5.93961L51.7472 6.03453L51.8528 6.05174L53.9216 6.38888L53.9222 6.38898C54.4913 6.48003 55.0914 6.60156 55.6018 6.723C56.1155 6.84521 56.5234 6.96387 56.7201 7.04776C58.3863 7.80889 59.3606 9.42681 59.2294 11.2354L59.2292 11.2378C59.1561 12.437 58.7678 13.2649 57.8471 14.2453C57.6753 14.4237 57.448 14.663 57.2057 14.9182C56.8779 15.2634 56.5224 15.6376 56.2394 15.9295L56.2392 15.9297L55.3351 16.8645L55.2611 16.941L55.2777 17.0461L55.6147 19.1749C55.6147 19.175 55.6147 19.1752 55.6148 19.1754C55.7059 19.7758 55.7743 20.3759 55.8141 20.8705C55.8544 21.372 55.8636 21.7445 55.8439 21.9041C55.6971 22.9582 55.1846 23.9381 54.4112 24.6388C53.4907 25.4567 52.5509 25.777 51.2247 25.7033L51.2237 25.7033C50.7856 25.681 50.4846 25.6374 50.0698 25.4944C49.6454 25.3479 49.1016 25.0973 48.1801 24.6519C48.1799 24.6518 48.1797 24.6516 48.1794 24.6515L46.0968 23.6255L46.0029 23.5793L45.9089 23.6252L43.8094 24.652L41.7543 25.657H40.4245C39.3858 25.657 38.957 25.5787 38.6239 25.4059C37.8316 24.98 36.9769 24.1223 36.6155 23.3996L36.615 23.3986C36.3426 22.8611 36.1992 22.3996 36.1665 21.7864C36.1333 21.1636 36.2141 20.3785 36.4055 19.1921L36.4057 19.1905L36.4057 19.1905L36.7275 17.091L36.7432 16.9885L36.6723 16.9129L35.0479 15.1812L35.0476 15.1808C34.0408 14.1126 33.4867 13.4622 33.1785 12.8824C32.8785 12.3178 32.807 11.8104 32.807 11.0056C32.807 10.0862 33.0032 9.30948 33.3843 8.6684C33.7649 8.02792 34.3376 7.51009 35.1111 7.11967L35.1126 7.11888C35.1573 7.09587 35.2534 7.05985 35.4037 7.01345C35.5494 6.96847 35.7335 6.91744 35.9451 6.86281C36.3681 6.75363 36.8947 6.63172 37.431 6.51721C37.9672 6.40271 38.5112 6.29602 38.969 6.21711C39.4318 6.13733 39.7913 6.08871 39.9683 6.08514C39.9685 6.08513 39.9687 6.08513 39.9689 6.08512L39.9648 5.87196C40.0567 5.87196 40.5164 5.09042 41.0068 4.14031C41.9263 2.37801 42.4626 1.56581 42.999 1.07544C43.52 0.615707 44.4701 0.171301 45.221 0.0640297L45.2512 0.275095ZM45.2512 0.275095C44.5415 0.376478 43.6311 0.802708 43.1414 1.23408L45.2512 0.275095ZM49.8199 8.6404L49.8196 8.64074C49.7146 8.56572 49.647 8.51377 49.5777 8.43897C49.5071 8.36276 49.4286 8.25598 49.3151 8.06804C49.1008 7.71323 48.7827 7.10527 48.1772 5.94784C48.1349 5.867 48.0912 5.78348 48.0461 5.69717C48.0459 5.69694 48.0458 5.69672 48.0457 5.69649L47.8568 5.79534C47.3358 4.78393 46.8301 3.87979 46.7228 3.78785L49.8199 8.6404ZM49.8199 8.6404L49.8302 8.64876C49.8608 8.67363 49.9387 8.71557 50.0915 8.76875C50.238 8.81978 50.4343 8.87486 50.6838 8.9344C51.1823 9.05337 51.8776 9.18648 52.7802 9.33947M49.8199 8.6404L36.1519 10.197C36.0067 10.3701 35.8822 10.55 35.8415 10.762C35.7987 10.9843 35.854 11.2038 35.9849 11.4432C36.1138 11.6786 36.3263 11.9524 36.6276 12.2935C36.9306 12.6365 37.3332 13.0583 37.8503 13.5907L37.8515 13.592C38.4316 14.1796 38.9338 14.72 39.2975 15.1425C39.4796 15.354 39.625 15.5337 39.7277 15.6737C39.7791 15.7438 39.818 15.8015 39.8448 15.8466C39.8676 15.8848 39.8766 15.9055 39.8795 15.9125C39.8841 15.9474 39.8865 16.045 39.8785 16.2165C39.8703 16.3908 39.8529 16.6188 39.8272 16.885C39.7759 17.4171 39.6922 18.095 39.5855 18.7886C39.4781 19.4868 39.3821 20.1429 39.313 20.6381C39.2785 20.8857 39.2506 21.0936 39.2312 21.2467C39.2131 21.3901 39.1999 21.5048 39.1999 21.5488C39.1999 21.6972 39.2602 21.8383 39.3366 21.9563C39.4146 22.0768 39.5202 22.1901 39.6367 22.2872C39.8623 22.4752 40.1701 22.6355 40.4551 22.6355C40.5137 22.6355 40.5812 22.6207 40.6414 22.6047C40.707 22.5874 40.785 22.5627 40.8721 22.5324C41.0466 22.4718 41.268 22.3852 41.52 22.2799C42.0244 22.0693 42.6601 21.7803 43.3065 21.4648C43.955 21.152 44.5871 20.8665 45.0862 20.6596C45.3361 20.556 45.5503 20.4732 45.7156 20.4165C45.7984 20.3882 45.8664 20.3672 45.919 20.3537C45.9453 20.3469 45.966 20.3424 45.9816 20.3397C45.9951 20.3373 46.0015 20.3369 46.0026 20.3368C46.0027 20.3368 46.0028 20.3368 46.0029 20.3369C46.0061 20.3372 46.0291 20.3398 46.0818 20.3535C46.1341 20.3672 46.2024 20.3882 46.2857 20.4166C46.452 20.4734 46.6689 20.5564 46.9216 20.6599C47.4266 20.8669 48.0663 21.1524 48.7143 21.465L48.7152 21.4654C49.3765 21.7807 50.0197 22.0696 50.5256 22.28C50.7783 22.3852 50.9989 22.4716 51.1714 22.5322C51.2575 22.5624 51.3341 22.5871 51.3981 22.6044C51.4559 22.6201 51.5228 22.6355 51.5806 22.6355C51.8631 22.6355 52.1627 22.4853 52.3831 22.3031C52.4964 22.2093 52.5987 22.0992 52.6742 21.9808C52.7484 21.8642 52.8052 21.7258 52.8052 21.5794C52.8052 21.5322 52.7922 21.4147 52.7739 21.2667C52.7546 21.1099 52.7267 20.8986 52.6921 20.6481C52.623 20.1469 52.5271 19.4869 52.4196 18.7886C52.3129 18.095 52.2292 17.4171 52.1779 16.885C52.1522 16.6188 52.1348 16.3908 52.1267 16.2165C52.1186 16.045 52.121 15.9474 52.1256 15.9125C52.1285 15.9055 52.1375 15.8847 52.1603 15.8466C52.1871 15.8015 52.226 15.7438 52.2774 15.6737C52.3801 15.5337 52.5255 15.354 52.7076 15.1425C53.0714 14.72 53.5735 14.1796 54.1536 13.592L54.1548 13.5907C54.6719 13.0583 55.0745 12.6365 55.3777 12.2935C55.6793 11.9525 55.892 11.6789 56.0217 11.4438C56.1534 11.205 56.2102 10.9864 56.1706 10.7648C56.1326 10.5517 56.0105 10.3706 55.8679 10.1963L55.8667 10.1948C55.7076 10.004 55.4726 9.88658 55.0318 9.76904C54.5891 9.65098 53.8969 9.52304 52.7802 9.33947M52.7802 9.33947C52.7801 9.33945 52.78 9.33943 52.7798 9.33941L52.7453 9.5498M52.7802 9.33947C52.7804 9.33951 52.7807 9.33955 52.7809 9.33959L52.7453 9.5498M52.7453 9.5498C54.9826 9.91758 55.473 10.0555 55.7029 10.3313C56.2545 11.0056 56.0706 11.3121 54.0019 13.4422L49.6957 8.81423C49.9409 9.01345 50.937 9.24331 52.7453 9.5498ZM45.5082 3.37591C45.9509 3.19218 46.5301 3.29752 46.8694 3.63293L36.3176 10.3313C36.5321 10.0555 37.0225 9.91758 39.2598 9.5498L39.2245 9.33954C39.2247 9.33951 39.2249 9.33948 39.225 9.33945C40.1352 9.18648 40.8305 9.05336 41.3289 8.9344C41.5784 8.87488 41.7749 8.81976 41.9226 8.76862C42.074 8.71623 42.1569 8.67374 42.1942 8.64566C42.2729 8.58323 42.4169 8.41042 42.5933 8.15337C42.7648 7.90369 42.9521 7.5966 43.1171 7.28922C43.9129 5.76652 44.4099 4.83773 44.7469 4.27416C44.9151 3.9928 45.0482 3.7943 45.1628 3.65624C45.2767 3.51898 45.385 3.42557 45.5082 3.37591Z" fill="#75B5FF" stroke="white" stroke-width="0.426417"/>
<path d="M25.621 4.13248L25.6211 4.13255L25.6161 4.1366C25.18 4.49342 24.9708 5.1568 25.1207 5.75795C25.1288 5.78865 25.1586 5.85273 25.2255 5.95292C25.2896 6.04878 25.3773 6.1626 25.4838 6.28883C25.6967 6.54098 25.9759 6.8322 26.2698 7.11188C26.5637 7.39159 26.8684 7.6562 27.1313 7.85612C27.2629 7.9562 27.3813 8.03793 27.4806 8.09687C27.585 8.15877 27.6511 8.18493 27.6825 8.19104L27.6825 8.19094L27.6889 8.19239C28.204 8.30913 28.6646 8.19092 28.9954 7.92098C29.3265 7.65081 29.5434 7.21566 29.5434 6.66867C29.5434 6.33825 29.5305 6.20308 29.4094 6.01009C29.2702 5.78852 28.9936 5.50228 28.4105 4.91922C27.8274 4.33615 27.5412 4.0595 27.3196 3.92037C27.1267 3.79919 26.9915 3.78636 26.6611 3.78636C26.4037 3.78636 26.2226 3.80868 26.0695 3.85971C25.9191 3.90984 25.7822 3.99227 25.621 4.13248Z" fill="#75B5FF" stroke="white" stroke-width="0.426417"/>
<path d="M63.5922 4.91951C63.0091 5.50258 62.7324 5.78881 62.5933 6.01038C62.4721 6.20337 62.4593 6.33854 62.4593 6.66897C62.4593 7.2241 62.6764 7.65803 63.0113 7.92565C63.3464 8.19337 63.8191 8.31036 64.3609 8.19241C64.3943 8.1849 64.4611 8.15674 64.5638 8.0941C64.6622 8.03406 64.7789 7.95155 64.9085 7.85101C65.1672 7.65014 65.4663 7.38556 65.7544 7.10595C66.0425 6.82634 66.316 6.53529 66.5244 6.2824C66.6288 6.15582 66.7147 6.04142 66.7776 5.94464C66.8433 5.84355 66.8733 5.77741 66.8817 5.74397C67.1393 4.6988 66.4292 3.78666 65.3416 3.78666C65.0112 3.78666 64.876 3.79948 64.683 3.92066C64.4615 4.05979 64.1752 4.33644 63.5922 4.91951Z" fill="#75B5FF" stroke="white" stroke-width="0.426417"/>
<path d="M21.9498 13.2546L21.9498 13.2546L21.9453 13.2573C21.6563 13.4308 21.4888 13.59 21.3875 13.7787C21.2851 13.9697 21.2366 14.2163 21.2366 14.5916C21.2366 14.813 21.2617 14.9717 21.3175 15.1128C21.3735 15.2543 21.4665 15.3933 21.625 15.5662L21.625 15.5662L21.628 15.5696C21.8518 15.8242 21.929 15.902 22.1185 15.9525C22.2265 15.9813 22.3743 16.0005 22.6037 16.0147C22.8319 16.0288 23.1275 16.0373 23.5274 16.0489L23.5275 16.0489L23.5275 16.0489L23.5292 16.0489C24.7729 16.095 25.1816 16.044 25.5096 15.8876C26.5525 15.3359 26.5603 13.7338 25.5227 13.1872C25.3856 13.1175 25.1344 13.0567 24.8014 13.0168C24.4747 12.9777 24.0919 12.9612 23.7089 12.9678C23.3257 12.9744 22.9473 13.004 22.6292 13.0554C22.3022 13.1082 22.0676 13.1799 21.9498 13.2546Z" fill="#75B5FF" stroke="white" stroke-width="0.426417"/>
<path d="M66.4519 13.1999L66.4519 13.1999L66.4482 13.2019C65.4627 13.7213 65.4186 15.2159 66.3692 15.805L66.3693 15.8051C66.5723 15.9311 66.7201 15.9981 66.986 16.0335C67.2684 16.071 67.6799 16.072 68.4108 16.049L68.4117 16.0489C68.8307 16.0374 69.1399 16.0289 69.3775 16.0147C69.6166 16.0005 69.7698 15.9813 69.8809 15.9523C70.0748 15.9017 70.1476 15.8252 70.3722 15.5696L70.3722 15.5696L70.3734 15.5682C71.0637 14.7968 70.8599 13.6592 69.9604 13.1879C69.8432 13.1299 69.6053 13.0754 69.2767 13.0376C68.9558 13.0007 68.5745 12.9823 68.1921 12.9832C67.8095 12.9842 67.4305 13.0045 67.1139 13.0436C66.7869 13.0841 66.5579 13.1413 66.4519 13.1999ZM68.4176 16.2621L68.4176 16.262L68.4176 16.2621Z" fill="#75B5FF" stroke="white" stroke-width="0.426417"/>
<path d="M25.1149 23.7304L25.1149 23.7304L25.1144 23.7349C25.0751 24.0655 25.0735 24.1975 25.1143 24.3084C25.1565 24.4233 25.2532 24.5402 25.5132 24.8002C25.7426 25.0296 25.8744 25.1364 26.0129 25.1953C26.1502 25.2538 26.3154 25.2741 26.6344 25.2741C26.9846 25.2741 27.1219 25.264 27.3156 25.1448C27.5379 25.008 27.8233 24.7325 28.4145 24.1412C28.9976 23.5581 29.2739 23.2721 29.4129 23.0491C29.5343 22.8543 29.5473 22.7154 29.5473 22.3765C29.5473 21.944 29.4187 21.5889 29.2032 21.3342C28.9885 21.0806 28.6766 20.913 28.2828 20.8722L28.2828 20.8723L28.2759 20.8714C28.1235 20.8506 27.9505 20.8469 27.7964 20.8575C27.6354 20.8686 27.5215 20.8937 27.4735 20.9155C27.4735 20.9155 27.4722 20.9161 27.4695 20.9176C27.4669 20.919 27.4633 20.921 27.4588 20.9238C27.4496 20.9293 27.4379 20.9369 27.4235 20.9469C27.3945 20.9669 27.3584 20.994 27.3154 21.0281C27.2295 21.0962 27.1223 21.1876 27.0003 21.2963C26.757 21.5132 26.4614 21.7936 26.1727 22.0822C25.71 22.5526 25.4631 22.8235 25.3206 23.0495C25.1877 23.2602 25.1438 23.4346 25.1149 23.7304Z" fill="#75B5FF" stroke="white" stroke-width="0.426417"/>
<path d="M63.306 20.9347L63.3051 20.9351C62.8234 21.1252 62.4593 21.7058 62.4593 22.3918C62.4593 22.7191 62.4751 22.8554 62.5984 23.0494C62.74 23.2722 63.0173 23.5586 63.5927 24.1418C64.1835 24.7326 64.4688 25.0081 64.691 25.1448C64.8847 25.264 65.022 25.2741 65.3723 25.2741C65.6829 25.2741 65.8494 25.2539 65.9878 25.1965C66.1263 25.1391 66.2583 25.0353 66.4781 24.8155C66.68 24.6137 66.7888 24.474 66.8513 24.3399C66.9116 24.2103 66.9367 24.0686 66.9367 23.8476C66.9367 23.7103 66.91 23.5381 66.8656 23.3748C66.8207 23.2095 66.7638 23.076 66.7151 23.005C66.5517 22.7785 66.0702 22.2838 65.5731 21.8175C65.327 21.5865 65.0827 21.3678 64.8802 21.1991C64.7789 21.1147 64.6898 21.0443 64.6172 20.9916C64.5399 20.9355 64.4955 20.9101 64.4793 20.9034C64.3483 20.8498 64.1434 20.82 63.9157 20.8254C63.6901 20.8307 63.4677 20.8701 63.306 20.9347Z" fill="#75B5FF" stroke="white" stroke-width="0.426417"/>
</g>
<defs>
<clipPath id="clip0_2005_355">
<rect width="92" height="82" fill="white"/>
</clipPath>
</defs>
</svg>
