<svg width="115" height="83" viewBox="0 0 115 83" fill="none" xmlns="http://www.w3.org/2000/svg">
<g clip-path="url(#clip0_2005_350)">
<path d="M84.8742 3.64764C81.2046 5.24412 75.5097 7.72225 72.2214 9.15193L66.2406 11.7254L61.3796 9.6285C58.7109 8.48475 55.8992 7.36483 55.1367 7.10272C53.4687 6.5785 50.4425 6.53084 48.5363 7.0074C47.5593 7.22186 18.775 18.3019 9.86323 21.8523C8.88628 22.2574 8.45737 22.9722 8.67183 23.8062C8.74331 24.116 9.57729 24.7832 10.8164 25.5219C11.9363 26.189 12.7464 26.8324 12.6273 26.9277C12.532 27.0469 9.91089 28.0953 6.83706 29.3105C3.76323 30.5019 1.09448 31.6457 0.951514 31.8601C0.498779 32.4558 0.570264 33.2183 1.18979 33.7664C2.52417 35.0054 11.1261 39.8426 13.5566 40.748L14.3429 41.034L13.3898 41.3437C12.8656 41.5344 11.3406 42.0109 9.98237 42.416C8.09995 42.9879 7.43276 43.3215 7.14683 43.7742C6.50347 44.7512 7.07534 45.3945 9.81558 46.848C13.3898 48.7543 18.6796 51.1371 20.9195 51.8758L22.921 52.5191L20.6574 53.234C18.8703 53.8297 18.3222 54.0918 18.0601 54.5922C17.4882 55.6168 18.0839 56.1648 21.9203 58.1426L25.3992 59.9297L29.8789 70.2711C32.3332 75.966 34.5492 80.8746 34.8113 81.2082C35.0734 81.5179 35.6214 81.9469 36.0503 82.1136C38.0042 82.9238 36.5031 83.5195 75.8671 66.4824C96.1449 57.6898 113.015 50.3269 113.325 50.0886C114.326 49.35 114.85 48.4445 114.969 47.2293C115.064 46.1332 114.635 45.0609 105.962 24.9976C100.958 13.4172 96.5976 3.43319 96.264 2.83748C95.5253 1.43162 94.2863 0.716779 92.7136 0.740607C91.7605 0.740607 90.307 1.28865 84.8742 3.64764ZM93.6667 4.10037C94.2148 5.00584 112.157 46.6097 112.157 47.0148C112.157 47.2293 111.919 47.5629 111.633 47.7535C110.704 48.3492 38.314 79.5879 37.8851 79.5879C37.6468 79.5879 37.3371 79.4926 37.1703 79.3972C36.8843 79.2066 29.3546 61.9789 29.5214 61.8359C29.5691 61.7883 30.4031 62.0265 31.38 62.384L33.1433 63.0273L34.8828 67.0543C35.8359 69.2703 36.8128 71.2957 37.0273 71.534C37.3847 71.9152 37.623 71.9629 38.4093 71.8437C40.2679 71.5101 41.1019 71.7961 41.8882 73.0828C42.1503 73.5117 42.6269 73.9406 42.9128 74.0121C43.2703 74.0836 52.4917 70.1996 72.9125 61.3594C89.1394 54.3539 102.817 48.4207 103.293 48.1824L104.175 47.7773V45.8949V44.0363L105.319 43.0355C106.105 42.3445 106.439 41.8679 106.439 41.4629C106.439 40.4859 93.9289 11.8445 93.3332 11.4633C92.9281 11.2012 92.666 11.1773 91.9035 11.4156C90.7121 11.773 89.5921 11.3441 88.8296 10.2719C87.9957 9.10428 87.5667 8.98514 86.2562 9.50936C85.6367 9.74764 81.5859 11.4633 77.273 13.3457C68.5757 17.0867 59.116 20.9707 58.6394 20.9707C58.4964 20.9707 57.6625 20.6609 56.8046 20.3035L55.2558 19.6363L73.7464 11.6301C83.921 7.22186 92.4992 3.59998 92.7851 3.59998C93.0949 3.57615 93.4761 3.81444 93.6667 4.10037ZM58.2582 11.4394C60.498 12.4164 62.3566 13.2742 62.3566 13.3457C62.3566 13.4172 59.9261 14.4894 56.9953 15.7523L51.6339 18.0637L49.1796 17.0867C46.3917 15.9906 43.8898 15.7047 41.3164 16.2051C40.5062 16.348 34.6207 18.5164 28.2347 20.9945C21.8488 23.4726 16.5589 25.498 16.5113 25.498C16.13 25.498 13.5328 23.7347 13.6757 23.5679C13.8664 23.3773 46.3203 10.7246 48.5363 9.96209C49.5371 9.6285 50.371 9.55701 51.9914 9.60467C54.0644 9.67615 54.3027 9.74764 58.2582 11.4394ZM87.2808 12.893C87.9957 13.7031 89.473 14.3226 90.6882 14.3703L91.832 14.4179L97.5269 27.6187L103.246 40.8195L102.674 41.439C101.816 42.3683 101.435 43.2262 101.244 44.7035L101.077 46.014L92.9757 49.5406C88.5199 51.4707 84.7074 53.1148 84.4691 53.1863C84.1832 53.3054 84.3261 52.8289 85.0171 51.3515C86.6136 47.9679 86.971 46.2047 86.971 41.9394C86.971 37.9601 86.6851 36.3875 85.3269 32.9562C82.7058 26.3082 76.7488 21.1375 70.4582 20.0652C69.4335 19.8984 69.505 19.8746 77.9878 16.1574C82.682 14.1082 86.6136 12.4164 86.6851 12.4164C86.7566 12.3926 87.0187 12.607 87.2808 12.893ZM52.3488 21.5664L58.4011 24.1398L59.4972 23.8301C60.0929 23.6633 61.1175 23.3535 61.7609 23.1629C62.571 22.9246 64.0484 22.8054 66.2882 22.7816C69.3621 22.7578 69.791 22.8054 71.721 23.4488C82.396 26.9515 87.5906 41.1531 81.8718 51.1609C80.8949 52.8765 78.3453 55.5691 76.5582 56.7605C71.4589 60.2394 63.7863 61.4785 55.0175 60.2394L53.016 59.9773L54.0644 59.4769C54.946 59.048 55.089 58.8574 55.1605 58.1187C55.3035 56.4746 54.1597 56.2363 51.6339 57.3801C47.6785 59.1433 43.0558 60.5254 39.8152 60.8828C38.0281 61.0734 34.7874 60.5492 32.3093 59.6676C30.2601 58.9527 23.5167 55.7597 23.5167 55.5215C23.5167 55.4261 26.4476 54.473 30.0218 53.4008C36.4792 51.423 42.0312 49.3738 45.4386 47.7058C47.0351 46.9195 47.2257 46.7527 47.2972 46.0855C47.3925 45.2039 46.8445 44.5605 46.0343 44.5605C45.7246 44.5605 43.9851 45.2039 42.1742 46.014C37.7421 47.9441 33.191 49.4691 30.3316 49.9457C27.496 50.4222 25.0894 50.184 21.7535 49.064C19.0847 48.1824 12.246 45.0133 12.4843 44.775C12.6035 44.6797 15.0339 43.8933 17.9171 43.0117C25.971 40.5812 26.9957 40.2 33.882 37.0308C42.2457 33.1707 42.198 33.1945 42.2933 32.1699C42.3886 31.2644 41.9121 30.7402 41.0304 30.7402C40.7445 30.7402 37.7421 32.0269 34.3347 33.6234C27.1863 36.9594 25.2562 37.7695 22.8257 38.389C19.2992 39.2945 16.5351 38.9133 12.389 36.9355C9.8394 35.7203 5.31206 33.1469 5.45503 33.0039C5.62183 32.8371 40.0773 19.4695 41.1496 19.1597C41.7691 18.9691 43.0558 18.8738 44.2472 18.8976C46.2249 18.9691 46.3917 19.0168 52.3488 21.5664ZM51.8722 62.6222C53.3734 62.8844 55.8277 63.2179 57.3289 63.3609C58.83 63.5039 60.0691 63.6469 60.1167 63.6707C60.1406 63.7183 56.5187 65.3148 52.039 67.2449L43.9136 70.7715L43.2941 70.1758C42.4601 69.3894 41.1257 68.8652 39.8867 68.8652H38.8382L37.8613 66.6492C37.3132 65.4101 36.8128 64.2664 36.7414 64.0758C36.646 63.8136 37.0511 63.7422 38.9335 63.7183C41.3402 63.6707 43.9374 63.2179 46.3203 62.4316C47.8691 61.9312 48.0359 61.9312 51.8722 62.6222Z" fill="black"/>
<path d="M61.2117 25.7363C56.4937 26.9754 52.6336 30.1207 50.5605 34.4336C49.4645 36.6973 49.0117 38.7465 49.0117 41.582C49.0117 46.2762 50.4652 49.8504 53.6582 53.0195C55.7789 55.1402 57.3992 56.1887 60.0203 57.1418C61.6168 57.7137 62.0695 57.7852 65.2148 57.7852C68.3602 57.7852 68.8367 57.7137 70.4809 57.1418C74.7223 55.6406 77.9867 52.8289 79.8691 49.0402C82.7523 43.1785 82.1566 36.7926 78.2488 31.5266C74.5555 26.5465 67.3832 24.116 61.2117 25.7363ZM68.1219 28.3813C72.9113 29.382 77.1766 33.5281 78.4395 38.4844C79.6785 43.3691 77.7008 48.9449 73.5547 52.2332C68.6461 56.0934 61.8551 56.0219 56.8035 52.0426C52.5859 48.7543 50.775 42.5828 52.4906 37.4598C54.7066 30.8594 61.3785 26.9754 68.1219 28.3813Z" fill="black"/>
<path d="M60.7356 31.598C60.1875 31.9793 60.0207 33.1707 60.4258 33.8379C60.5926 34.0762 60.5211 34.2668 60.1875 34.4812C59.9492 34.6719 59.4488 35.3152 59.0914 35.9348C57.4711 38.6988 58.9723 42.7496 61.8316 43.2738C62.3559 43.393 63.6664 43.2977 65.1199 43.0355C67.7172 42.6066 68.5512 42.7258 69.0039 43.5836C69.7664 44.9656 68.7418 46.8004 67.05 47.1816C65.8348 47.4437 64.9293 47.1102 64.143 46.0855C63.3566 45.0609 62.332 44.9656 61.7363 45.8711C61.1883 46.7051 61.4742 47.5867 62.7133 48.7781C63.4996 49.5406 64.0477 49.8266 65.0484 50.041C65.7633 50.184 66.5973 50.2316 66.907 50.1602C67.3836 50.0648 67.5504 50.1602 67.8363 50.8035C68.1223 51.4469 68.3367 51.6137 69.0754 51.6613C69.7902 51.7328 70.0285 51.6375 70.3383 51.1371C70.6719 50.6367 70.6957 50.3984 70.4574 49.6836C70.1953 48.8734 70.2191 48.7543 70.7672 48.1824C72.7449 46.0617 72.7211 43.0117 70.6957 40.9863C69.4805 39.7711 68.3129 39.5805 65.3344 40.1285C62.9039 40.5574 62.1891 40.4383 61.5457 39.509C60.9738 38.6988 61.0691 38.0078 61.9031 37.0785C63.0231 35.7918 64.9055 35.482 65.7871 36.4352C65.9777 36.6496 66.359 37.0547 66.6449 37.3406C67.193 37.984 68.3367 38.0555 68.7895 37.5074C69.6473 36.4828 68.575 34.3859 66.7879 33.5758C66.2398 33.3375 65.2629 33.123 64.5719 33.123C63.4281 33.123 63.2852 33.0516 62.9516 32.4082C62.618 31.7648 61.9508 31.2168 61.4742 31.2168C61.3551 31.2168 61.0215 31.3836 60.7356 31.598Z" fill="#75B5FF"/>
</g>
<defs>
<clipPath id="clip0_2005_350">
<rect width="115" height="83" fill="white"/>
</clipPath>
</defs>
</svg>
