<svg width="84" height="84" viewBox="0 0 84 84" fill="none" xmlns="http://www.w3.org/2000/svg">
<g clip-path="url(#clip0_2005_344)">
<path d="M22.5426 0.393754C22.0505 0.623441 21.4762 1.06641 21.1317 1.49297C20.2622 2.57578 0.673104 32.4188 0.312166 33.2063C-0.0323648 33.9609 -0.114396 35.7492 0.180916 36.2906C0.312166 36.5367 0.312166 36.7172 0.180916 36.9797C0.0496664 37.2258 0.000447681 43.0992 0.0332602 58.6523L0.0824789 79.9805L0.574666 80.932C1.1817 82.1297 2.36295 83.2289 3.5442 83.6555C4.44654 84 4.51217 84 42.0005 84H79.5544L80.5059 83.6391C81.802 83.1633 83.1637 81.8016 83.6395 80.5055L84.0005 79.5539V58.357V37.1438L83.0653 36.2414C82.3762 35.5688 48.3661 5.06953 43.2637 0.54141C42.788 0.114848 42.509 3.8147e-06 42.0005 3.8147e-06C41.295 3.8147e-06 41.5083 -0.180465 36.7833 4.06875L34.7489 5.87344L30.6473 3.16641C28.3997 1.68985 26.2997 0.360941 26.0044 0.229691C25.1184 -0.131246 23.527 -0.0656212 22.5426 0.393754ZM51.7622 20.6555C66.4786 30.3352 78.5536 38.3086 78.6356 38.3742C78.734 38.4727 75.2723 40.9008 74.2059 41.475C73.8942 41.6555 71.302 39.982 47.5458 24.3469C33.0919 14.8148 21.2137 7.00547 21.1809 6.97266C21.0825 6.85782 23.3301 3.42891 23.6911 3.18282C23.8715 3.05157 24.2653 2.95313 24.5278 2.98594C24.8395 3.03516 34.47 9.26953 51.7622 20.6555ZM56.9137 16.7836C65.0512 24.0844 71.6958 30.0727 71.6958 30.1055C71.6958 30.1547 70.3176 29.2688 68.6278 28.1531C63.4926 24.7898 37.4887 7.67813 37.4395 7.62891C37.3575 7.56328 41.902 3.44532 42.0169 3.49453C42.0825 3.51094 48.7762 9.49922 56.9137 16.7836ZM45.2981 26.4469C59.4567 35.7656 71.0395 43.4438 71.0395 43.493C71.0395 43.5422 69.5794 44.5266 67.8075 45.6914C66.0192 46.8563 64.3622 47.9391 64.1325 48.1031L63.7059 48.3984L58.5708 45.0188C55.7489 43.1648 53.2223 41.557 52.9598 41.475C52.3856 41.2781 51.5981 41.557 51.3192 42.0656C51.0567 42.5414 51.1223 43.4766 51.4505 43.8211C51.5981 43.9852 53.7637 45.4617 56.2903 47.1188C58.8005 48.7758 60.8676 50.1539 60.8676 50.2031C60.8676 50.2523 60.3426 50.6133 59.7192 51.007L58.5708 51.7125L54.9942 49.3664C53.0419 48.0867 51.1715 46.9219 50.8598 46.7906C50.138 46.4953 49.0059 46.643 48.3005 47.1188C47.6114 47.5945 45.7575 50.4 45.5606 51.2695C45.3637 52.1063 45.6262 53.0906 46.2005 53.7141C46.4465 53.9602 47.5294 54.7641 48.6286 55.4859C49.7278 56.2078 50.6301 56.8148 50.663 56.8313C50.6794 56.8641 50.1872 57.225 49.5473 57.6516L48.3989 58.4063L46.6434 57.225C43.8872 55.3875 43.313 55.125 42.0005 55.125C40.7372 55.125 40.0481 55.4203 37.8333 56.9133L36.57 57.7828L31.4512 54.4031C3.46217 35.9953 3.19967 35.8148 3.0356 35.3719C2.93717 35.093 2.93717 34.7813 3.05201 34.4859C3.15045 34.2398 6.02154 29.7938 9.43404 24.6094C12.8465 19.425 16.4887 13.8961 17.5059 12.3375C18.5231 10.7953 19.409 9.51563 19.4583 9.51563C19.5075 9.51563 31.1395 17.1445 45.2981 26.4469ZM18.3919 49.3992C26.7755 54.9281 33.6333 59.4891 33.6333 59.5711C33.6333 59.6367 26.7919 64.1648 18.4411 69.6445C6.9567 77.1586 3.19967 79.5539 3.10123 79.3734C2.93717 79.1273 2.90435 39.375 3.05201 39.375C3.11764 39.375 10.0083 43.8867 18.3919 49.3992ZM81.0473 59.9156C81.0473 70.4977 80.9817 79.2586 80.8997 79.3734C80.8012 79.5539 77.2739 77.3063 66.4294 70.2188C58.538 65.0508 51.877 60.6703 51.6309 60.4898L51.1551 60.1617L52.1231 59.5547C52.6481 59.2266 59.3419 54.8461 67.0036 49.8094C74.6653 44.7891 80.9653 40.6875 80.9981 40.6875C81.0145 40.6875 81.0473 49.35 81.0473 59.9156ZM52.927 51.6141C54.5184 52.6477 55.7817 53.5336 55.7489 53.5664C55.5356 53.7797 53.6161 54.9609 53.4848 54.9609C53.4028 54.9609 52.2544 54.2555 50.9255 53.4023L48.5465 51.8438L48.9075 51.2203C49.3997 50.4 49.8919 49.7109 49.9575 49.7109C49.9903 49.7109 51.3192 50.5641 52.927 51.6141ZM59.9653 69.5625L77.3559 80.9648L59.67 81.0141C49.9575 81.0305 34.0434 81.0305 24.3309 81.0141L6.64498 80.9648L24.1176 69.5133C38.9325 59.8008 41.6723 58.0617 42.0825 58.1109C42.3942 58.1438 48.7926 62.2453 59.9653 69.5625Z" fill="black"/>
<path d="M21.5581 18.7031C21.2791 18.982 21.1479 19.0148 20.7706 18.8672C20.0979 18.6211 18.3588 18.6703 17.3909 18.982C16.4557 19.2773 15.3073 20.2617 14.8315 21.1805C14.4213 22.0008 14.3393 23.7562 14.6674 24.7898C15.0776 26.0203 15.619 26.7914 16.7018 27.6773C18.3424 29.0227 18.9002 30.2039 18.2932 31.1062C17.3252 32.5992 14.7331 31.9102 13.6995 29.8758C13.2073 28.9078 12.9448 28.6781 12.2557 28.6617C10.4838 28.6125 10.2213 30.4172 11.7143 32.3695C12.0096 32.7469 12.0752 32.9766 11.9768 33.1406C11.4846 33.9117 12.2885 35.2734 13.2073 35.2734C13.6666 35.2734 14.2901 35.0109 14.4541 34.732C14.5198 34.6336 14.9956 34.65 15.7174 34.7812C19.8518 35.4703 22.7229 31.7625 20.9346 28.0383C20.4588 27.0539 19.9666 26.4797 18.8018 25.5281C17.2924 24.2977 16.9479 23.0508 17.8831 22.1156C18.3588 21.6562 18.4573 21.6234 19.3596 21.6891C20.6393 21.7875 21.5745 22.4273 22.1487 23.6086C22.6409 24.6422 23.3627 25.0687 24.1502 24.7898C25.4135 24.3469 25.4463 22.9852 24.2159 21.2461C23.9534 20.8687 23.8877 20.5734 23.9206 19.9828C23.9698 19.3266 23.9206 19.1461 23.5596 18.7852C23.0346 18.2602 22.0502 18.2109 21.5581 18.7031Z" fill="#75B5FF"/>
<path d="M29.8608 26.8572C29.0241 27.1689 28.6468 28.2517 29.1226 28.9736C29.3686 29.3673 32.0265 31.1556 42.4772 38.0134C46.6936 40.7697 46.9397 40.8681 47.7601 40.0478C48.3015 39.49 48.3835 38.8337 47.9569 38.2431C47.8093 38.0298 45.7257 36.5533 43.3304 34.9783C30.0741 26.2501 30.6319 26.5783 29.8608 26.8572Z" fill="#75B5FF"/>
<path d="M23.3297 36.504C22.9031 36.8485 22.8047 37.0618 22.8047 37.5704C22.8047 37.9149 22.9359 38.3415 23.1 38.522C23.625 39.1618 39.8836 49.7274 40.4578 49.8259C41.5898 50.0063 42.4758 48.3329 41.7211 47.447C41.2125 46.8563 24.8883 36.2251 24.3633 36.143C23.9695 36.0774 23.7234 36.1595 23.3297 36.504Z" fill="#75B5FF"/>
</g>
<defs>
<clipPath id="clip0_2005_344">
<rect width="84" height="84" fill="white"/>
</clipPath>
</defs>
</svg>
