<svg width="118" height="45" viewBox="0 0 118 45" fill="none" xmlns="http://www.w3.org/2000/svg">
<g clip-path="url(#clip0_10_56)">
<path d="M14.5323 3.60791H15.5816C19.2246 3.6871 22.8081 5.15221 25.382 7.74583C24.4316 8.71596 23.4615 9.6465 22.531 10.6166C21.0857 9.30992 19.3434 8.30019 17.4427 7.94382C14.6313 7.34986 11.6021 7.88442 9.24606 9.48811C6.67224 11.171 4.92995 14.022 4.55378 17.071C4.13801 20.0804 4.98935 23.2482 6.94942 25.5844C8.83029 27.8613 11.7011 29.2868 14.6709 29.3858C17.4427 29.5442 20.3333 28.6928 22.3528 26.7525C23.9367 25.3864 24.6692 23.3076 24.9068 21.2881C21.6202 21.2881 18.3336 21.3079 15.0471 21.2881V17.2096H28.8863C29.5991 21.5851 28.5696 26.515 25.2434 29.6431C23.0259 31.8606 19.9571 33.1673 16.8289 33.4247C13.7998 33.7217 10.6716 33.1475 7.97895 31.6824C4.75177 29.9599 2.17794 27.0495 0.910826 23.6244C-0.277093 20.4764 -0.296892 16.9126 0.811833 13.7448C1.82156 10.8542 3.76183 8.30019 6.25646 6.51831C8.6521 4.75623 11.5625 3.7861 14.5323 3.60791Z" fill="black"/>
<path d="M93.9248 4.63721H98.1617V32.9097C96.756 32.9097 95.3305 32.9295 93.9248 32.8899C93.9446 23.4855 93.9248 14.0614 93.9248 4.63721Z" fill="black"/>
<path d="M38.3103 14.4378C40.9237 13.9429 43.7549 14.4972 45.9129 16.0613C47.873 17.4472 49.2391 19.6251 49.6549 22.0009C50.1895 24.7529 49.5163 27.7623 47.7344 29.9402C45.814 32.3754 42.666 33.6821 39.5972 33.4841C36.7858 33.3258 34.0536 31.92 32.3905 29.6234C30.5096 27.0892 30.0542 23.6046 31.0838 20.6348C32.1133 17.4472 35.0237 15.012 38.3103 14.4378ZM38.9042 18.1996C37.8351 18.4768 36.8452 19.0905 36.1324 19.9617C34.2119 22.2583 34.3307 26.0003 36.4492 28.1385C37.6569 29.366 39.4784 29.9402 41.1613 29.6036C42.7254 29.3264 44.0915 28.2771 44.8438 26.8912C46.1505 24.5352 45.7744 21.2882 43.7747 19.4469C42.4878 18.259 40.6069 17.764 38.9042 18.1996Z" fill="black"/>
<path d="M59.2967 14.4378C62.2863 13.8637 65.5531 14.6952 67.7903 16.7939C71.4333 20.0606 71.8293 26.1784 68.7209 29.9402C66.84 32.316 63.791 33.6227 60.7816 33.4841C57.9108 33.4049 55.0796 31.9794 53.3769 29.6234C51.4565 27.0298 51.0407 23.466 52.1296 20.4368C53.2185 17.3482 56.0695 14.9922 59.2967 14.4378ZM59.8907 18.1996C58.8216 18.4768 57.8316 19.0905 57.1189 19.9419C55.2182 22.1989 55.2974 25.8815 57.3367 28.0395C58.5444 29.3264 60.4252 29.96 62.1675 29.6036C63.7118 29.3066 65.0977 28.2771 65.8501 26.8912C67.137 24.5153 66.7608 21.2684 64.7414 19.4271C63.4544 18.2392 61.5736 17.764 59.8907 18.1996Z" fill="black"/>
<path d="M77.0961 15.5863C79.373 14.1608 82.4022 13.7648 84.8572 14.9923C85.6294 15.3289 86.2629 15.9031 86.8767 16.4772C86.8965 15.9427 86.8767 15.3883 86.8965 14.8339C88.223 14.8537 89.5495 14.8339 90.8958 14.8537V32.3161C90.876 34.9494 90.2028 37.741 88.3022 39.6614C86.2233 41.7799 83.0357 42.4333 80.1649 41.9977C77.0961 41.5423 74.4233 39.3051 73.2354 36.4739C74.4233 35.8997 75.6706 35.4443 76.8981 34.9098C77.5911 36.5333 78.9968 37.9192 80.7589 38.2359C82.521 38.5527 84.5602 38.1172 85.7085 36.6521C86.9361 35.1474 86.9361 33.0883 86.8767 31.247C85.9659 32.138 84.9166 32.9299 83.6495 33.2269C80.8975 33.999 77.8683 33.0487 75.7498 31.1876C73.6116 29.3265 72.3445 26.4557 72.4632 23.6047C72.5226 20.3776 74.3441 17.2692 77.0961 15.5863ZM81.1945 18.1205C79.9867 18.3185 78.8582 18.9916 78.0861 19.9222C76.225 22.1396 76.225 25.6836 78.1059 27.8614C79.175 29.1484 80.8975 29.8611 82.5606 29.6829C84.1247 29.5245 85.57 28.5346 86.3421 27.1685C87.6488 24.8521 87.431 21.7041 85.669 19.6846C84.58 18.4373 82.8377 17.8235 81.1945 18.1205Z" fill="black"/>
<path d="M103.25 16.5962C105.626 14.3787 109.289 13.6264 112.338 14.7945C115.229 15.8834 117.07 18.6354 118 21.4666C113.704 23.2485 109.428 25.0106 105.131 26.7925C105.725 27.921 106.636 28.9505 107.864 29.3663C109.586 29.9801 111.645 29.7623 113.09 28.6139C113.665 28.1784 114.12 27.6042 114.555 27.0499C115.644 27.7824 116.733 28.4952 117.822 29.2277C116.278 31.5441 113.684 33.1676 110.893 33.425C107.804 33.8012 104.518 32.6133 102.518 30.1978C99.2313 26.3965 99.5481 20.0213 103.25 16.5962ZM105.369 20.2589C104.696 21.229 104.419 22.417 104.438 23.5851C107.309 22.3972 110.18 21.2092 113.051 20.0015C112.576 18.8928 111.427 18.2197 110.259 18.0415C108.378 17.7049 106.418 18.7146 105.369 20.2589Z" fill="black"/>
</g>
<defs>
<clipPath id="clip0_10_56">
<rect width="118" height="44.9875" fill="white"/>
</clipPath>
</defs>
</svg>
