<svg width="125" height="44" viewBox="0 0 125 44" fill="none" xmlns="http://www.w3.org/2000/svg">
<g clip-path="url(#clip0_10_51)">
<path fill-rule="evenodd" clip-rule="evenodd" d="M77.801 32.4761C70.5641 37.827 60.0378 40.6778 50.9589 40.6778C38.2396 40.6778 26.8361 35.9849 18.1519 28.1778C17.494 27.5638 18.0641 26.7305 18.8975 27.2129C28.2396 32.6515 39.7747 35.8971 51.7045 35.8971C59.7308 35.8971 68.5905 34.2305 76.7483 30.7656C77.9764 30.2831 78.9852 31.5989 77.801 32.4761Z" fill="black"/>
<path fill-rule="evenodd" clip-rule="evenodd" d="M80.8273 29.0113C79.9062 27.8271 74.6869 28.4411 72.3623 28.7482C71.6606 28.8359 71.529 28.2218 72.1869 27.7832C76.3536 24.8447 83.1518 25.7218 83.9413 26.6868C84.7308 27.6517 83.722 34.4938 79.8185 37.7394C79.2045 38.2218 78.6343 37.9587 78.8974 37.3008C79.7746 35.1078 81.7483 30.2394 80.8273 29.0113Z" fill="black"/>
<path fill-rule="evenodd" clip-rule="evenodd" d="M72.4942 7.16919V4.31831C72.4942 3.87972 72.8012 3.61656 73.1959 3.61656H85.9152C86.3099 3.61656 86.6608 3.92358 86.6608 4.31831V6.73059C86.6608 7.12533 86.3099 7.65165 85.6959 8.52884L79.117 17.9148C81.5731 17.8709 84.1608 18.2218 86.3538 19.4499C86.8363 19.7131 86.9678 20.1516 87.0117 20.5464V23.5727C87.0117 24.0113 86.5731 24.4937 86.0907 24.2306C82.1872 22.1692 76.9679 21.9499 72.6696 24.2745C72.231 24.4938 71.7486 24.0552 71.7486 23.6166V20.7218C71.7486 20.2832 71.7486 19.4938 72.231 18.792L79.8626 7.87095H73.2398C72.845 7.87095 72.4942 7.56393 72.4942 7.16919ZM26.1345 24.8446H22.2749C21.924 24.8008 21.617 24.5376 21.5731 24.1867V4.36218C21.5731 3.96744 21.924 3.66042 22.3187 3.66042H25.9152C26.31 3.66042 26.5731 3.96744 26.617 4.31831V6.90603H26.7047C27.6257 4.40603 29.424 3.22182 31.7924 3.22182C34.2047 3.22182 35.7398 4.40603 36.7924 6.90603C37.7135 4.40603 39.8626 3.22182 42.1433 3.22182C43.7661 3.22182 45.5205 3.87972 46.617 5.41481C47.845 7.08147 47.5819 9.49376 47.5819 11.6429V24.1867C47.5819 24.5815 47.231 24.8885 46.8363 24.8885H43.0205C42.6257 24.8446 42.3187 24.5376 42.3187 24.1867V13.6604C42.3187 12.8271 42.4065 10.7218 42.231 9.93234C41.924 8.61655 41.0907 8.22182 39.9503 8.22182C39.0293 8.22182 38.0205 8.83586 37.6257 9.84463C37.231 10.8534 37.2749 12.5201 37.2749 13.6604V24.1867C37.2749 24.5815 36.924 24.8885 36.5293 24.8885H32.6696C32.2749 24.8446 31.9679 24.5376 31.9679 24.1867V13.6604C31.9679 11.4674 32.3187 8.17796 29.5994 8.17796C26.8363 8.17796 26.924 11.3359 26.924 13.6604V24.1867C26.8801 24.5376 26.5731 24.8446 26.1345 24.8446ZM97.6257 3.22182C103.371 3.22182 106.485 8.1341 106.485 14.406C106.485 20.4587 103.064 25.2832 97.6257 25.2832C92.0117 25.2832 88.9415 20.3709 88.9415 14.2306C88.8977 8.04639 92.0117 3.22182 97.6257 3.22182ZM97.6257 7.30076C94.7749 7.30076 94.5994 11.2043 94.5994 13.6166C94.5994 16.0288 94.5556 21.2043 97.5819 21.2043C100.564 21.2043 100.74 17.0376 100.74 14.4938C100.74 12.8271 100.652 10.8095 100.17 9.2306C99.731 7.82709 98.8538 7.30076 97.6257 7.30076ZM113.898 24.8446H110.038C109.643 24.8008 109.336 24.4938 109.336 24.1429V4.27445C109.38 3.92357 109.687 3.61656 110.082 3.61656H113.678C114.029 3.61656 114.292 3.87972 114.38 4.18674V7.21305H114.468C115.564 4.49376 117.056 3.22182 119.731 3.22182C121.442 3.22182 123.152 3.83585 124.249 5.54638C125.257 7.12533 125.257 9.80077 125.257 11.7306V24.2306C125.213 24.5815 124.906 24.8446 124.512 24.8446H120.652C120.301 24.8008 119.994 24.5376 119.95 24.2306V13.4411C119.95 11.2481 120.213 8.09025 117.538 8.09025C116.617 8.09025 115.74 8.70428 115.301 9.6692C114.775 10.8973 114.687 12.0815 114.687 13.4411V24.1429C114.643 24.5376 114.292 24.8446 113.898 24.8446ZM62.3626 15.371C62.3626 16.8622 62.4064 18.1341 61.6608 19.4938C61.0468 20.5902 60.0819 21.2481 58.9854 21.2481C57.4942 21.2481 56.617 20.1078 56.617 18.4411C56.617 15.1517 59.5556 14.5376 62.3626 14.5376V15.371ZM66.2661 24.8008C66.0029 25.0201 65.6521 25.0639 65.345 24.8885C64.0731 23.8359 63.8099 23.3095 63.1082 22.3008C61.0029 24.4499 59.4678 25.1078 56.7485 25.1078C53.5029 25.1078 50.9591 23.0902 50.9591 19.099C50.9591 15.9411 52.6696 13.8359 55.0819 12.7832C57.1871 11.8622 60.1257 11.6867 62.3626 11.4236V10.9411C62.3626 10.0201 62.4503 8.92358 61.8801 8.13411C61.3977 7.43235 60.5205 7.12533 59.731 7.12533C58.2398 7.12533 56.924 7.87095 56.617 9.4499C56.5293 9.80078 56.31 10.1516 55.9591 10.1516L52.231 9.75691C51.924 9.66919 51.5731 9.4499 51.6608 8.96744C52.538 4.40604 56.617 3.04639 60.3012 3.04639C62.1871 3.04639 64.6433 3.52884 66.1345 4.97621C68.0205 6.73059 67.845 9.09902 67.845 11.6429V17.6516C67.845 19.4499 68.5907 20.2394 69.2924 21.2481C69.5556 21.599 69.5994 22.0376 69.2924 22.2569C68.4591 22.9148 67.0556 24.1429 66.2661 24.8008ZM11.7047 15.371C11.7047 16.8622 11.7486 18.1341 11.0029 19.4938C10.3889 20.5902 9.42399 21.2481 8.3275 21.2481C6.83627 21.2481 5.95908 20.1078 5.95908 18.4411C5.95908 15.1517 8.89768 14.5376 11.7047 14.5376V15.371ZM15.5643 24.8008C15.3012 25.0201 14.9503 25.0639 14.6433 24.8885C13.3714 23.8359 13.1082 23.3095 12.4064 22.3008C10.3012 24.4499 8.76609 25.1078 6.0468 25.1078C2.80118 25.1078 0.257324 23.0902 0.257324 19.099C0.257324 15.9411 1.96785 13.8359 4.38013 12.7832C6.48539 11.8622 9.42399 11.6867 11.6608 11.4236V10.9411C11.6608 10.0201 11.7485 8.92358 11.1784 8.13411C10.6959 7.43235 9.81873 7.12533 9.02925 7.12533C7.53803 7.12533 6.22223 7.87095 5.91522 9.4499C5.8275 9.80078 5.6082 10.1516 5.25732 10.1516L1.52925 9.75691C1.22223 9.66919 0.871362 9.4499 0.959081 8.96744C1.83627 4.40604 5.91522 3.04639 9.59943 3.04639C11.4854 3.04639 13.9415 3.52884 15.4328 4.97621C17.3187 6.73059 17.1433 9.09902 17.1433 11.6429V17.6516C17.1433 19.4499 17.8889 20.2394 18.5907 21.2481C18.8538 21.599 18.8977 22.0376 18.5907 22.2569C17.7573 22.9148 16.3538 24.1429 15.5643 24.8008Z" fill="black"/>
</g>
<defs>
<clipPath id="clip0_10_51">
<rect width="125" height="43.7243" fill="white"/>
</clipPath>
</defs>
</svg>
