<svg width="67" height="67" viewBox="0 0 67 67" fill="none" xmlns="http://www.w3.org/2000/svg">
<g clip-path="url(#clip0_10_25)">
<path fill-rule="evenodd" clip-rule="evenodd" d="M43.7879 10.6961C46.2303 7.8654 47.8766 3.92278 47.426 0C43.9064 0.134 39.6483 2.24834 37.1246 5.07571C34.8584 7.58482 32.8801 11.594 33.4119 15.4398C37.338 15.7312 41.3455 13.5302 43.7879 10.6961ZM52.592 35.5938C52.6902 45.7341 61.8738 49.1072 61.9754 49.1508C61.9009 49.3886 60.5086 53.9572 57.138 58.6806C54.2214 62.7609 51.1963 66.8246 46.4301 66.9117C41.7486 66.9954 40.2411 64.252 34.8855 64.252C29.5332 64.252 27.8598 66.8242 23.4289 66.9951C18.8287 67.1592 15.3226 62.5806 12.3857 58.5138C6.37623 50.1958 1.78616 35.0078 7.95142 24.757C11.0137 19.6684 16.4845 16.4411 22.4262 16.3607C26.9418 16.2769 31.2067 19.2723 33.9675 19.2723C36.7283 19.2723 41.9112 15.6711 47.3583 16.2004C49.6381 16.2908 56.0405 17.0812 60.1495 22.8464C59.8175 23.0441 52.5107 27.1184 52.592 35.5938Z" fill="black"/>
</g>
<defs>
<clipPath id="clip0_10_25">
<rect width="67" height="67" fill="white"/>
</clipPath>
</defs>
</svg>
