<svg width="229" height="61" viewBox="0 0 229 61" fill="none" xmlns="http://www.w3.org/2000/svg">
<path d="M89.3603 44.8753C80.9899 51.0451 68.8574 54.3369 58.4116 54.3369C43.7647 54.3369 30.5788 48.9195 20.6032 39.9096C19.8195 39.2012 20.5217 38.2355 21.4623 38.7875C32.2281 45.0508 45.5393 48.8195 59.2893 48.8195C68.5625 48.8195 78.7641 46.9007 88.1439 42.9192C89.561 42.3172 90.746 43.8469 89.3603 44.8753Z" fill="#FF9900"/>
<path d="M92.8401 40.8939C91.7742 39.5271 85.7674 40.2479 83.0711 40.5679C82.2499 40.6684 82.1245 39.9535 82.8643 39.4393C87.6484 36.0722 95.4984 37.0439 96.4139 38.1725C97.3291 39.3075 96.1757 47.1764 91.68 50.9321C90.9902 51.509 90.3318 51.2017 90.6391 50.4371C91.6489 47.9163 93.9123 42.2669 92.8401 40.8939Z" fill="#FF9900"/>
<path d="M83.2597 15.6689V12.396C83.2597 11.9007 83.6359 11.5685 84.0872 11.5685H98.7406C99.2108 11.5685 99.5869 11.9071 99.5869 12.396V15.1987C99.5807 15.6689 99.1856 16.2835 98.4835 17.2552L90.8904 28.0961C93.712 28.027 96.6902 28.4472 99.2483 29.8893C99.8252 30.2153 99.9818 30.6919 100.026 31.1621V34.6546C100.026 35.131 99.4992 35.6892 98.9474 35.4005C94.439 33.0369 88.4512 32.7798 83.4668 35.4256C82.9589 35.7016 82.4258 35.1499 82.4258 34.6732V31.3566C82.4258 30.8235 82.432 29.9144 82.9651 29.1056L91.7619 16.4901H84.1061C83.6357 16.4901 83.2597 16.1579 83.2597 15.6689ZM29.8077 36.0905H25.3495C24.9233 36.0592 24.5847 35.7392 24.5534 35.3319V12.4524C24.5534 11.9946 24.936 11.6311 25.4124 11.6311H29.5695C30.0021 11.6498 30.347 11.9822 30.3783 12.396V15.3867H30.4599C31.5445 12.4962 33.5824 11.148 36.3286 11.148C39.1187 11.148 40.8619 12.4962 42.1158 15.3867C43.1942 12.4962 45.6458 11.148 48.273 11.148C50.1413 11.148 52.1854 11.9193 53.4331 13.6496C54.8437 15.5746 54.5553 18.3709 54.5553 20.8225L54.5493 35.2623C54.5493 35.72 54.1666 36.09 53.6902 36.09H49.2385C48.7934 36.0587 48.4361 35.7011 48.4361 35.2623V23.1364C48.4361 22.1709 48.5237 19.7633 48.3108 18.8478C47.9784 17.3117 46.9813 16.879 45.6898 16.879C44.6115 16.879 43.4826 17.6001 43.0249 18.7538C42.5674 19.9075 42.6114 21.8385 42.6114 23.1364V35.2628C42.6114 35.7205 42.2287 36.0905 41.7523 36.0905H37.3006C36.8491 36.0592 36.4982 35.7016 36.4982 35.2628L36.492 23.1364C36.492 20.5846 36.9122 16.8288 33.7457 16.8288C30.5419 16.8288 30.6673 20.4906 30.6673 23.1364V35.2628C30.6665 35.7205 30.2841 36.0905 29.8077 36.0905ZM112.202 11.1483C118.817 11.1483 122.397 16.8288 122.397 24.0521C122.397 31.0306 118.441 36.5671 112.202 36.5671C105.706 36.5671 102.17 30.8866 102.17 23.8077C102.17 16.6846 105.75 11.1483 112.202 11.1483ZM112.239 15.8193C108.954 15.8193 108.747 20.2961 108.747 23.0862C108.747 25.8827 108.703 31.8516 112.202 31.8516C115.656 31.8516 115.819 27.0364 115.819 24.1019C115.819 22.1707 115.738 19.8633 115.155 18.0325C114.654 16.4399 113.656 15.8193 112.239 15.8193ZM130.974 36.0905H126.535C126.09 36.0592 125.733 35.7019 125.733 35.2628L125.726 12.3773C125.764 11.9573 126.134 11.6311 126.585 11.6311H130.717C131.106 11.6498 131.426 11.9133 131.514 12.2706V15.7691H131.595C132.843 12.6404 134.592 11.148 137.671 11.148C139.671 11.148 141.621 11.8691 142.875 13.8441C144.041 15.6748 144.041 18.7535 144.041 20.9667V35.369C143.991 35.7703 143.621 36.0903 143.182 36.0903H138.712C138.304 36.0589 137.966 35.7578 137.922 35.369V22.942C137.922 20.4403 138.21 16.7786 135.131 16.7786C134.047 16.7786 133.05 17.5058 132.554 18.6093C131.928 20.0075 131.846 21.3996 131.846 22.942V35.2625C131.84 35.7205 131.451 36.0905 130.974 36.0905ZM146.831 34.2719C146.831 33.1182 147.816 32.1903 149.026 32.1903C150.236 32.1903 151.22 33.118 151.22 34.2719C151.22 35.4194 150.236 36.3598 149.026 36.3598C147.816 36.3598 146.831 35.4194 146.831 34.2719ZM194.063 36.0965C193.599 36.0778 193.236 35.7205 193.236 35.269V12.3895C193.261 11.982 193.606 11.6622 194.032 11.6371H195.669C196.12 11.6371 196.484 11.9631 196.521 12.3895V15.7251C197.687 13.0792 199.857 11.01 202.597 11.01H202.929C205.838 11.01 207.964 13.1543 208.754 16.2706C209.989 13.1919 212.309 11.01 215.369 11.01H215.707C217.87 11.01 219.952 12.4019 221.03 14.5214C222.071 16.5466 222.034 19.2426 222.034 21.5063L222.027 35.269C222.034 35.7078 221.676 36.0651 221.231 36.0965H219.275C218.849 36.0778 218.504 35.777 218.447 35.3819V21.5063C218.447 19.8697 218.529 18.1329 217.864 16.6408C217.187 15.1171 215.889 14.1641 214.497 14.095C212.942 14.1703 211.512 15.3051 210.584 16.835C209.381 18.81 209.425 20.5908 209.425 22.8982V35.3943C209.368 35.7703 209.036 36.0651 208.628 36.0965H206.684C206.221 36.0778 205.851 35.7205 205.851 35.269L205.838 20.5908C205.838 19.2426 205.757 17.6563 205.136 16.4461C204.415 15.0667 203.123 14.1638 201.769 14.0947C200.364 14.1763 198.947 15.2484 198.107 16.4964C197.022 18.0889 196.816 20.0577 196.816 22.0829V35.2687C196.816 35.7076 196.458 36.0649 196.013 36.0962L194.063 36.0965ZM180.633 36.5731C174.307 36.5731 171.472 30.1213 171.472 23.6692C171.472 16.8852 174.802 11.01 181.172 11.01H181.511C187.705 11.01 190.791 17.2676 190.791 23.7195C190.791 30.5537 187.373 36.5731 180.965 36.5731H180.633ZM181.097 33.4442C183.178 33.3756 184.821 32.0838 185.793 29.9331C186.665 28.0019 186.834 25.7884 186.834 23.6692C186.834 21.3621 186.583 18.9542 185.498 16.9792C184.527 15.2549 182.859 14.1576 181.091 14.095C179.122 14.1641 177.36 15.4995 176.476 17.5561C175.68 19.3369 175.435 21.7007 175.435 23.6695C175.435 25.8829 175.723 28.441 176.639 30.366C177.529 32.1903 179.241 33.3753 181.097 33.4442ZM160.864 33.344C163.704 33.2564 165.196 30.9804 165.811 28.0332C165.936 27.6632 166.218 27.381 166.632 27.381L168.507 27.3748C168.952 27.3937 169.36 27.7323 169.322 28.1461C168.457 33.1684 165.428 36.5729 161.115 36.5729H160.776C154.494 36.5729 151.785 30.265 151.785 23.8634C151.785 17.5118 154.531 11.0098 160.814 11.0098H161.152C165.516 11.0098 168.626 14.3705 169.303 19.3928C169.303 19.769 168.952 20.0952 168.538 20.139L166.576 20.1139C166.162 20.0574 165.893 19.7064 165.83 19.3115C165.36 16.5088 163.748 14.2767 161.064 14.1889C156.794 14.3272 155.578 19.5813 155.578 23.6255C155.578 27.5192 156.594 33.206 160.864 33.344ZM79.5164 31.8956C78.7013 30.767 77.8361 29.8515 77.8361 27.7637V20.8165C77.8361 17.8758 78.0429 15.1736 75.8735 13.1484C74.1618 11.5056 71.3278 10.9287 69.1584 10.9287C64.9197 10.9287 60.1796 12.5086 59.189 17.7505C59.0823 18.3085 59.4899 18.6031 59.8534 18.6847L64.1733 19.1486C64.5809 19.1297 64.8757 18.7349 64.9508 18.3336C65.3208 16.5279 66.8318 15.6564 68.5311 15.6564C69.4528 15.6564 70.4936 15.9951 71.0329 16.8164C71.66 17.7319 71.5784 18.9858 71.5784 20.0453V20.6221C68.995 20.9167 65.6155 21.105 63.1952 22.1709C60.3989 23.3748 58.4426 25.8389 58.4426 29.4567C58.4426 34.0904 61.3579 36.4038 65.1139 36.4038C68.2802 36.4038 70.0172 35.6579 72.4626 33.162C73.2715 34.3346 73.541 34.9052 75.0207 36.1343C75.3531 36.3098 75.7793 36.2909 76.0739 36.0278L76.0802 36.0403C76.9705 35.2501 78.588 33.8395 79.4973 33.0809C79.8613 32.7798 79.7986 32.2969 79.5164 31.8956ZM70.7445 29.8893C70.0359 31.1435 68.9073 31.9145 67.6598 31.9145C65.9481 31.9145 64.9446 30.6104 64.9446 28.6854C64.9446 24.8858 68.3493 24.1961 71.5784 24.1961V25.1616C71.5787 26.8984 71.6224 28.347 70.7445 29.8893ZM21.0733 31.8956C20.2583 30.767 19.3932 29.8515 19.3932 27.7637V20.8165C19.3932 17.8758 19.6001 15.1736 17.4307 13.1484C15.719 11.5056 12.8847 10.9287 10.7156 10.9287C6.47693 10.9287 1.743 12.5086 0.746179 17.7505C0.645732 18.3085 1.04704 18.6031 1.41057 18.6847L5.73697 19.1486C6.13828 19.1297 6.43293 18.7349 6.50826 18.3336C6.87824 16.5279 8.39571 15.6564 10.0947 15.6564C11.0102 15.6564 12.051 15.9951 12.5966 16.8164C13.2172 17.7319 13.1356 18.9858 13.1356 20.0453V20.6221C10.5525 20.9167 7.17289 21.105 4.75259 22.1709C1.96255 23.3748 0 25.8389 0 29.4567C0 34.0904 2.92182 36.4038 6.67137 36.4038C9.84407 36.4038 11.5746 35.6579 14.02 33.162C14.8351 34.3346 15.0984 34.9052 16.5781 36.1343C16.9105 36.3098 17.3367 36.2909 17.6314 36.0278L17.644 36.0403C18.5344 35.2501 20.1519 33.8395 21.0611 33.0809C21.4247 32.7798 21.3618 32.2969 21.0733 31.8956ZM12.3017 29.8893C11.593 31.1435 10.4709 31.9145 9.21699 31.9145C7.50532 31.9145 6.50826 30.6104 6.50826 28.6854C6.50826 24.8858 9.9127 24.1961 13.1356 24.1961V25.1616C13.1356 26.8984 13.1794 28.347 12.3017 29.8893ZM226.661 11.8818C227.733 11.8818 228.624 12.747 228.624 13.8381C228.624 14.904 227.746 15.8006 226.661 15.8006C225.583 15.8006 224.705 14.9229 224.705 13.8381C224.705 12.7344 225.595 11.8818 226.661 11.8818ZM226.667 11.5056C225.413 11.5056 224.329 12.5213 224.329 13.8443C224.329 15.1422 225.395 16.1766 226.667 16.1766C227.947 16.1766 229 15.1296 229 13.8443C229 12.5213 227.928 11.5056 226.667 11.5056ZM225.79 15.1547H226.292V14.1014H226.755C226.937 14.1014 226.987 14.1767 227.025 14.3272C227.025 14.3647 227.113 15.0296 227.119 15.1547H227.677C227.608 15.0293 227.571 14.6718 227.545 14.4587C227.495 14.1263 227.47 13.8943 227.113 13.8694C227.295 13.8068 227.608 13.7063 227.608 13.2235C227.608 12.5337 227 12.5337 226.686 12.5337H225.79V15.1547ZM226.279 12.9539H226.699C226.837 12.9539 227.087 12.9539 227.087 13.3112C227.087 13.4492 227.025 13.6812 226.686 13.6812H226.279V12.9539Z" fill="#221F1F"/>
</svg>
