<svg width="111" height="63" viewBox="0 0 111 63" fill="none" xmlns="http://www.w3.org/2000/svg">
<path fill-rule="evenodd" clip-rule="evenodd" d="M19.6016 39.3278C18.7481 39.3278 18.0799 39.9249 18.0799 40.7961C18.0799 41.6679 18.7516 42.2616 19.6016 42.2616C20.4511 42.2616 21.1233 41.6639 21.1233 40.7961C21.1233 39.9249 20.4545 39.3278 19.6016 39.3278ZM19.6016 41.8417C18.9931 41.8417 18.5417 41.3972 18.5417 40.7961C18.5417 40.1956 18.9896 39.7476 19.6016 39.7476C20.2061 39.7476 20.661 40.2025 20.661 40.7961C20.661 41.3863 20.2021 41.8417 19.6016 41.8417ZM34.4082 34.1921H27.0006L27.8426 21.3166L23.0321 34.1921H16.1533L27.0677 5.08984H34.387L33.5422 18.1419L38.4439 5.08984H45.3232L34.4082 34.1921ZM35.3019 34.1921L46.2157 5.08984H53.0945L42.1806 34.1921H35.3019Z" fill="black"/>
<path fill-rule="evenodd" clip-rule="evenodd" d="M15.3602 24.161C5.74779 35.4494 -3.31974 50.4694 4.68956 57.386C12.4505 64.0887 22.1512 60.1202 28.7656 57.4744C35.38 54.8285 108.489 23.0804 108.489 23.0804C109.194 22.7277 109.062 22.2866 108.18 22.5068C107.824 22.5957 28.5895 44.0689 28.5895 44.0689C18.5349 46.8915 7.07043 40.74 15.3602 24.161Z" fill="black"/>
<path fill-rule="evenodd" clip-rule="evenodd" d="M19.8611 40.8999C20.0745 40.8896 20.2414 40.7794 20.2414 40.484C20.2414 40.1032 19.9925 40.0074 19.5767 40.0074H18.979V41.5864H19.3776V40.9142H19.4447L19.8078 41.5864H20.2661L19.8611 40.8999ZM19.6053 40.6441H19.3782V40.2776H19.5698C19.6874 40.2776 19.8221 40.2913 19.8221 40.4445C19.8221 40.6085 19.7441 40.6441 19.6053 40.6441ZM88.75 5.00146C87.8965 5.00146 87.2283 5.59912 87.2283 6.4698C87.2283 7.34104 87.9005 7.93469 88.75 7.93469C89.5995 7.93469 90.2717 7.33703 90.2717 6.4698C90.2722 5.59912 89.604 5.00146 88.75 5.00146ZM88.75 7.51598C88.1414 7.51598 87.69 7.07147 87.69 6.47037C87.69 5.86985 88.138 5.42189 88.75 5.42189C89.3545 5.42189 89.8099 5.87673 89.8099 6.47037C89.8099 7.06057 89.3511 7.51598 88.75 7.51598Z" fill="black"/>
<path fill-rule="evenodd" clip-rule="evenodd" d="M89.0099 6.57251C89.2232 6.56219 89.3907 6.45207 89.3907 6.15668C89.3907 5.77583 89.1412 5.68004 88.7259 5.68004H88.1283V7.2585H88.5263V6.58685H88.594L88.9565 7.2585H89.4154L89.0099 6.57251ZM88.7535 6.3167H88.5263V5.95019H88.7185C88.8355 5.95019 88.9708 5.96453 88.9708 6.11768C88.9708 6.28114 88.8923 6.3167 88.7535 6.3167ZM84.2177 9.9405L86.0663 5.08984H65.0772L57.8703 13.8207L61.1976 5.08984H54.2305L43.4038 34.1921H50.2826L54.905 22.0221L55.2216 34.1921L76.3283 34.1462L78.3375 28.5482H70.3127L72.9494 21.4933H79.5632L81.5982 16.0696H74.9844L77.2517 9.9405H84.2177ZM62.0459 32.2517L61.6048 17.0837L72.0053 5.66456L62.0459 32.2517Z" fill="black"/>
</svg>
