<svg width="118" height="46" viewBox="0 0 118 46" fill="none" xmlns="http://www.w3.org/2000/svg">
<g clip-path="url(#clip0_10_16)">
<path d="M14.5323 3.64551H15.5816C19.2246 3.7247 22.8081 5.1898 25.382 7.78343C24.4316 8.75356 23.4615 9.6841 22.531 10.6542C21.0857 9.34752 19.3434 8.33779 17.4427 7.98141C14.6313 7.38745 11.6021 7.92202 9.24606 9.52571C6.67224 11.2086 4.92995 14.0596 4.55378 17.1086C4.13801 20.118 4.98935 23.2858 6.94942 25.622C8.83029 27.8989 11.7011 29.3244 14.6709 29.4234C17.4427 29.5818 20.3333 28.7304 22.3528 26.7901C23.9367 25.424 24.6692 23.3452 24.9068 21.3257C21.6202 21.3257 18.3336 21.3455 15.0471 21.3257V17.2472H28.8863C29.5991 21.6227 28.5696 26.5526 25.2434 29.6807C23.0259 31.8982 19.9571 33.2049 16.8289 33.4623C13.7998 33.7593 10.6716 33.1851 7.97895 31.72C4.75177 29.9975 2.17794 27.0871 0.910826 23.662C-0.277093 20.514 -0.296892 16.9502 0.811833 13.7824C1.82156 10.8918 3.76183 8.33779 6.25646 6.55591C8.6521 4.79383 11.5625 3.8237 14.5323 3.64551Z" fill="#3780FF"/>
<path d="M93.9248 4.6748H98.1617V32.9473C96.756 32.9473 95.3305 32.9671 93.9248 32.9275C93.9446 23.5231 93.9248 14.099 93.9248 4.6748Z" fill="#38B137"/>
<path d="M38.3103 14.4754C40.9237 13.9805 43.7549 14.5348 45.9129 16.0989C47.873 17.4848 49.2391 19.6627 49.6549 22.0385C50.1895 24.7905 49.5163 27.7999 47.7344 29.9778C45.814 32.413 42.666 33.7197 39.5972 33.5217C36.7858 33.3634 34.0536 31.9576 32.3905 29.661C30.5096 27.1268 30.0542 23.6422 31.0838 20.6724C32.1133 17.4848 35.0237 15.0496 38.3103 14.4754ZM38.9042 18.2372C37.8351 18.5144 36.8452 19.1281 36.1324 19.9993C34.2119 22.2959 34.3307 26.0378 36.4492 28.1761C37.6569 29.4036 39.4784 29.9778 41.1613 29.6412C42.7254 29.364 44.0915 28.3147 44.8438 26.9288C46.1505 24.5727 45.7744 21.3258 43.7747 19.4845C42.4878 18.2966 40.6069 17.8016 38.9042 18.2372Z" fill="#FA3913"/>
<path d="M59.2967 14.4754C62.2863 13.9013 65.5531 14.7328 67.7903 16.8315C71.4333 20.0982 71.8293 26.216 68.7209 29.9778C66.84 32.3536 63.791 33.6603 60.7816 33.5217C57.9108 33.4425 55.0796 32.017 53.3769 29.661C51.4565 27.0674 51.0407 23.5036 52.1296 20.4744C53.2185 17.3858 56.0695 15.0298 59.2967 14.4754ZM59.8907 18.2372C58.8216 18.5144 57.8316 19.1281 57.1189 19.9795C55.2182 22.2365 55.2974 25.9191 57.3367 28.0771C58.5444 29.364 60.4252 29.9976 62.1675 29.6412C63.7118 29.3442 65.0977 28.3147 65.8501 26.9288C67.137 24.5529 66.7608 21.306 64.7414 19.4647C63.4544 18.2768 61.5736 17.8016 59.8907 18.2372Z" fill="#FCBD06"/>
<path d="M77.0961 15.6239C79.373 14.1984 82.4022 13.8024 84.8572 15.0299C85.6294 15.3665 86.2629 15.9407 86.8767 16.5148C86.8965 15.9803 86.8767 15.4259 86.8965 14.8715C88.223 14.8913 89.5495 14.8715 90.8958 14.8913V32.3537C90.876 34.987 90.2028 37.7786 88.3022 39.699C86.2233 41.8175 83.0357 42.4709 80.1649 42.0353C77.0961 41.5799 74.4233 39.3427 73.2354 36.5115C74.4233 35.9373 75.6706 35.4819 76.8981 34.9474C77.5911 36.5709 78.9968 37.9568 80.7589 38.2735C82.521 38.5903 84.5602 38.1547 85.7085 36.6896C86.9361 35.1849 86.9361 33.1259 86.8767 31.2846C85.9659 32.1756 84.9166 32.9675 83.6495 33.2645C80.8975 34.0366 77.8683 33.0863 75.7498 31.2252C73.6116 29.3641 72.3445 26.4933 72.4632 23.6423C72.5226 20.4152 74.3441 17.3068 77.0961 15.6239ZM81.1945 18.1581C79.9867 18.3561 78.8582 19.0292 78.0861 19.9598C76.225 22.1772 76.225 25.7212 78.1059 27.899C79.175 29.186 80.8975 29.8987 82.5606 29.7205C84.1247 29.5621 85.57 28.5722 86.3421 27.2061C87.6488 24.8896 87.431 21.7417 85.669 19.7222C84.58 18.4749 82.8377 17.8611 81.1945 18.1581Z" fill="#3780FF"/>
<path d="M103.25 16.6338C105.626 14.4163 109.289 13.664 112.338 14.8321C115.229 15.921 117.07 18.673 118 21.5042C113.704 23.2861 109.428 25.0482 105.131 26.8301C105.725 27.9586 106.636 28.9881 107.864 29.4039C109.586 30.0177 111.645 29.7999 113.09 28.6515C113.665 28.216 114.12 27.6418 114.555 27.0875C115.644 27.82 116.733 28.5328 117.822 29.2653C116.278 31.5817 113.684 33.2052 110.893 33.4626C107.804 33.8388 104.518 32.6509 102.518 30.2354C99.2313 26.4341 99.5481 20.0589 103.25 16.6338ZM105.369 20.2965C104.696 21.2666 104.419 22.4546 104.438 23.6227C107.309 22.4348 110.18 21.2468 113.051 20.0391C112.576 18.9304 111.427 18.2572 110.259 18.0791C108.378 17.7425 106.418 18.7522 105.369 20.2965Z" fill="#FA3913"/>
</g>
<defs>
<clipPath id="clip0_10_16">
<rect width="118" height="44.9875" fill="white" transform="translate(0 0.0375977)"/>
</clipPath>
</defs>
</svg>
