<svg width="123" height="24" viewBox="0 0 123 24" fill="none" xmlns="http://www.w3.org/2000/svg">
<g clip-path="url(#clip0_14_92)">
<path d="M25.8509 1.9784C23.8755 1.05417 21.7632 0.382443 19.555 0C19.2837 0.490311 18.9669 1.14978 18.7485 1.67441C16.401 1.32139 14.0752 1.32139 11.7709 1.67441C11.5525 1.14978 11.2284 0.490311 10.9548 0C8.74416 0.382443 6.62952 1.05662 4.6541 1.98331C0.669652 8.00433 -0.410469 13.8758 0.129592 19.6639C2.77229 21.6374 5.33337 22.8362 7.85126 23.6207C8.47293 22.7651 9.02739 21.8556 9.50504 20.8971C8.59534 20.5514 7.72404 20.1248 6.90075 19.6296C7.11918 19.4678 7.3328 19.2986 7.53922 19.1246C12.5606 21.4732 18.0164 21.4732 22.9778 19.1246C23.1866 19.2986 23.4002 19.4678 23.6162 19.6296C22.7905 20.1273 21.9168 20.5538 21.0071 20.8995C21.4848 21.8556 22.0368 22.7676 22.6609 23.6232C25.1812 22.8387 27.7447 21.6399 30.3874 19.6639C31.0211 12.954 29.3049 7.13648 25.8509 1.9784ZM10.1891 16.1043C8.68175 16.1043 7.44561 14.6971 7.44561 12.9834C7.44561 11.2698 8.65535 9.86015 10.1891 9.86015C11.7229 9.86015 12.959 11.2673 12.9326 12.9834C12.935 14.6971 11.7229 16.1043 10.1891 16.1043ZM20.3279 16.1043C18.8205 16.1043 17.5843 14.6971 17.5843 12.9834C17.5843 11.2698 18.7941 9.86015 20.3279 9.86015C21.8616 9.86015 23.0978 11.2673 23.0714 12.9834C23.0714 14.6971 21.8616 16.1043 20.3279 16.1043Z" fill="#5865F2"/>
<path d="M41.0083 6.02588H47.561C49.1404 6.02588 50.475 6.27839 51.5695 6.78096C52.6616 7.28353 53.4801 7.98467 54.0226 8.88194C54.565 9.77921 54.8386 10.8064 54.8386 11.9635C54.8386 13.0962 54.5554 14.1234 53.989 15.0427C53.4225 15.9645 52.5608 16.6926 51.4015 17.2295C50.2421 17.7664 48.8068 18.0361 47.0906 18.0361H41.0083V6.02588ZM47.0234 14.9839C48.0867 14.9839 48.9052 14.7117 49.4764 14.1699C50.0477 13.6257 50.3333 12.8853 50.3333 11.9464C50.3333 11.0761 50.0789 10.3823 49.5701 9.86256C49.0612 9.34283 48.2907 9.08052 47.261 9.08052H45.2112V14.9839H47.0234Z" fill="#5865F2"/>
<path d="M64.6489 18.0214C63.7416 17.7811 62.9231 17.433 62.1958 16.9746V14.1258C62.7455 14.5598 63.4823 14.9177 64.4064 15.1996C65.3305 15.4791 66.2235 15.6188 67.0875 15.6188C67.4908 15.6188 67.7956 15.5649 68.0021 15.457C68.2085 15.3492 68.3117 15.2192 68.3117 15.0697C68.3117 14.8981 68.2565 14.7559 68.1437 14.6407C68.0309 14.5254 67.8124 14.4298 67.4884 14.3489L65.4722 13.8856C64.3176 13.611 63.4991 13.231 63.0119 12.7432C62.5246 12.2578 62.2822 11.6204 62.2822 10.831C62.2822 10.1666 62.4934 9.59047 62.9207 9.0977C63.3455 8.60494 63.9504 8.22495 64.7353 7.95773C65.5202 7.68806 66.4371 7.55322 67.4908 7.55322C68.4317 7.55322 69.2934 7.65619 70.0783 7.86212C70.8632 8.06805 71.5112 8.33037 72.0273 8.65152V11.3458C71.4992 11.0246 70.8944 10.7721 70.2031 10.5809C69.5142 10.3921 68.8061 10.299 68.0765 10.299C67.0227 10.299 66.4971 10.4828 66.4971 10.8481C66.4971 11.0197 66.5787 11.1472 66.7419 11.233C66.9051 11.3188 67.2052 11.4071 67.6396 11.5002L69.3198 11.8091C70.4167 12.0028 71.2352 12.3436 71.7729 12.829C72.3105 13.3144 72.5794 14.0327 72.5794 14.9839C72.5794 16.0258 72.1353 16.852 71.2448 17.4649C70.3543 18.0778 69.0918 18.3842 67.4548 18.3842C66.4923 18.3817 65.5562 18.2616 64.6489 18.0214Z" fill="#5865F2"/>
<path d="M76.5447 17.661C75.5822 17.1805 74.8549 16.5284 74.3701 15.7046C73.8852 14.8809 73.6404 13.9542 73.6404 12.9246C73.6404 11.8949 73.8924 10.9731 74.3965 10.1617C74.9005 9.3502 75.6398 8.7128 76.6143 8.24945C77.5888 7.78611 78.753 7.55566 80.1091 7.55566C81.7893 7.55566 83.1838 7.91604 84.2928 8.6368V11.7772C83.9015 11.5027 83.4455 11.2796 82.9246 11.108C82.4038 10.9364 81.8469 10.8506 81.2516 10.8506C80.2099 10.8506 79.3962 11.0442 78.8082 11.434C78.2201 11.8238 77.9249 12.3313 77.9249 12.9613C77.9249 13.5791 78.2105 14.0842 78.7818 14.4813C79.353 14.876 80.1811 15.0746 81.2684 15.0746C81.8277 15.0746 82.3798 14.9912 82.9246 14.827C83.4671 14.6603 83.9351 14.4568 84.3264 14.2165V17.254C83.095 18.0091 81.6669 18.3866 80.0419 18.3866C78.6737 18.3817 77.5072 18.1415 76.5447 17.661Z" fill="#5865F2"/>
<path d="M88.4838 17.661C87.5141 17.1805 86.7748 16.5235 86.2659 15.6875C85.7571 14.8515 85.5002 13.9199 85.5002 12.8903C85.5002 11.8606 85.7547 10.9413 86.2659 10.1347C86.7772 9.32816 87.5117 8.69566 88.4766 8.23722C89.4391 7.77878 90.5888 7.55078 91.921 7.55078C93.2531 7.55078 94.4029 7.77878 95.3654 8.23722C96.3279 8.69566 97.0624 9.32325 97.5664 10.1249C98.0705 10.9266 98.3225 11.8459 98.3225 12.8878C98.3225 13.9175 98.0705 14.8491 97.5664 15.685C97.0624 16.521 96.3255 17.178 95.3558 17.6585C94.386 18.139 93.2411 18.3793 91.9186 18.3793C90.596 18.3793 89.4511 18.1415 88.4838 17.661ZM93.5892 14.6162C93.9972 14.1994 94.2036 13.6478 94.2036 12.9614C94.2036 12.2749 93.9996 11.7282 93.5892 11.3237C93.1811 10.9168 92.6243 10.7133 91.9186 10.7133C91.2009 10.7133 90.6392 10.9168 90.2288 11.3237C89.8207 11.7307 89.6167 12.2749 89.6167 12.9614C89.6167 13.6478 89.8207 14.1994 90.2288 14.6162C90.6368 15.0329 91.2009 15.2438 91.9186 15.2438C92.6243 15.2413 93.1811 15.0329 93.5892 14.6162Z" fill="#5865F2"/>
<path d="M108.418 8.18872V11.8955C107.991 11.6086 107.439 11.4664 106.755 11.4664C105.859 11.4664 105.168 11.7435 104.688 12.2975C104.206 12.8516 103.966 13.7145 103.966 14.8815V18.0391H99.8491V7.99995H103.882V11.1919C104.105 10.0249 104.467 9.16444 104.966 8.60793C105.463 8.05388 106.107 7.77686 106.889 7.77686C107.482 7.77686 107.991 7.91414 108.418 8.18872Z" fill="#5865F2"/>
<path d="M122.095 5.68311V18.0389H117.978V15.7909C117.63 16.6367 117.102 17.2814 116.392 17.7227C115.681 18.1615 114.803 18.3822 113.761 18.3822C112.83 18.3822 112.018 18.1517 111.325 17.6884C110.631 17.225 110.096 16.5901 109.719 15.7835C109.344 14.9769 109.155 14.065 109.155 13.0451C109.143 11.9934 109.342 11.0496 109.752 10.2136C110.161 9.3776 110.739 8.72548 111.483 8.25724C112.227 7.78899 113.077 7.55364 114.03 7.55364C115.991 7.55364 117.306 8.42394 117.978 10.1621V5.68311H122.095ZM117.364 14.5479C117.784 14.1312 117.993 13.5894 117.993 12.9274C117.993 12.2876 117.789 11.7654 117.381 11.3658C116.972 10.9662 116.413 10.7652 115.71 10.7652C115.016 10.7652 114.462 10.9687 114.047 11.3756C113.631 11.7826 113.425 12.3097 113.425 12.9618C113.425 13.6139 113.631 14.1459 114.047 14.5577C114.462 14.9696 115.009 15.1755 115.693 15.1755C116.387 15.1731 116.944 14.9647 117.364 14.5479Z" fill="#5865F2"/>
<path d="M58.3071 9.06832C59.4405 9.06832 60.3593 8.22537 60.3593 7.18553C60.3593 6.14569 59.4405 5.30273 58.3071 5.30273C57.1737 5.30273 56.2549 6.14569 56.2549 7.18553C56.2549 8.22537 57.1737 9.06832 58.3071 9.06832Z" fill="#5865F2"/>
<path d="M56.2529 10.3657C57.5107 10.9198 59.0708 10.9443 60.3574 10.3657V18.093H56.2529V10.3657Z" fill="#5865F2"/>
</g>
<defs>
<clipPath id="clip0_14_92">
<rect width="122.152" height="23.6232" fill="white"/>
</clipPath>
</defs>
</svg>
